<svg version="1.1" xmlns="http://www.w3.org/2000/svg" xmlns:xlink="http://www.w3.org/1999/xlink" width="814.81381" height="429.18638" viewBox="0,0,814.81381,429.18638"><defs><linearGradient x1="-6.90686" y1="207.88833" x2="806.90695" y2="207.88833" gradientUnits="userSpaceOnUse" id="color-1"><stop offset="0" stop-color="#ffffff"/><stop offset="1" stop-color="#cfcfcf"/></linearGradient><linearGradient x1="-0.90085" y1="216.9258" x2="800.90095" y2="216.9258" gradientUnits="userSpaceOnUse" id="color-2"><stop offset="0" stop-color="#cfcfcf"/><stop offset="1" stop-color="#999999"/></linearGradient><linearGradient x1="8.77535" y1="4.33206" x2="8.77535" y2="5.04928" gradientUnits="userSpaceOnUse" id="color-3"><stop offset="0" stop-color="#20c3f1"/><stop offset="1" stop-color="#0898d6"/></linearGradient><linearGradient x1="4.77864" y1="9.25616" x2="12.75807" y2="9.25616" gradientUnits="userSpaceOnUse" id="color-4"><stop offset="0" stop-color="#1c308d"/><stop offset="1" stop-color="#000f57" stop-opacity="0.80392"/></linearGradient><linearGradient x1="6.64342" y1="5.06042" x2="6.64342" y2="6.15823" gradientUnits="userSpaceOnUse" id="color-5"><stop offset="0" stop-color="#20c3f1"/><stop offset="1" stop-color="#0898d6"/></linearGradient><linearGradient x1="10.90853" y1="5.06042" x2="10.90853" y2="6.15823" gradientUnits="userSpaceOnUse" id="color-6"><stop offset="0" stop-color="#20c3f1"/><stop offset="1" stop-color="#0898d6"/></linearGradient></defs><g transform="translate(7.40687,6.70486)"><g data-paper-data="{&quot;isPaintingLayer&quot;:true}" fill-rule="nonzero" stroke-linecap="butt" stroke-linejoin="miter" stroke-miterlimit="10" stroke-dasharray="" stroke-dashoffset="0" style="mix-blend-mode: normal"><path d="M-6.90686,421.98152v-428.18638h813.81381v428.18638z" fill="url(#color-1)" stroke="#818181" stroke-width="1"/><path d="M-0.90085,417.81044v-401.76928h801.8018v401.76928z" fill="url(#color-2)" stroke="#818181" stroke-width="0"/><text transform="translate(17.3931,11.40926) scale(0.21773,0.21773)" font-size="40" xml:space="preserve" fill="#000000" fill-rule="nonzero" stroke="none" stroke-width="1" stroke-linecap="butt" stroke-linejoin="miter" stroke-miterlimit="10" stroke-dasharray="" stroke-dashoffset="0" font-family="Sans Serif" font-weight="normal" text-anchor="start" style="mix-blend-mode: normal"><tspan x="0" dy="0">Microsoft Store</tspan></text><g stroke="#000000" stroke-width="0"><path d="M6.88954,5.04928v-0.71722h3.77163v0.71722z" fill="url(#color-3)"/><path d="M6.3924,5.67005v-1.07583l0.50205,-0.26896v1.34478z" fill="#2cd4fc"/><path d="M4.77865,12.03537c-0.00004,-0.03788 0,-6.36532 0,-6.36532h7.97906c0,0 0.00079,6.33557 0,6.36532c-0.0138,0.51854 -0.34788,0.78751 -0.8248,0.80687c-0.02201,0.00089 -6.2973,-0.02227 -6.32945,-0.02309c-0.43785,-0.01127 -0.82432,-0.36537 -0.8248,-0.78378z" fill="url(#color-4)"/><g><path d="M7.03905,9.03332v-1.67077h1.67077v1.67077z" fill="#f25022"/><path d="M8.85474,9.03332v-1.67077h1.67077v1.67077z" fill="#7fba00"/><path d="M7.03905,10.85447v-1.67077h1.67077v1.67077z" fill="#00a4ef"/><path d="M8.86211,10.85447v-1.67077h1.67077v1.67077z" fill="#ffb900"/></g><path d="M10.65985,5.65797v-1.32685l0.50205,0.25103v1.07583z" fill="#2cd4fc"/><path d="M6.3924,6.15823v-1.09781h0.50205v1.09781z" fill="url(#color-5)"/><path d="M10.6575,6.15823v-1.09781h0.50205v1.09781z" fill="url(#color-6)"/></g></g></g></svg>