<svg version="1.1" xmlns="http://www.w3.org/2000/svg" xmlns:xlink="http://www.w3.org/1999/xlink" width="18.48565" height="30.03003" viewBox="0,0,18.48565,30.03003"><g transform="translate(-590.77501,-420.9548)"><g stroke-miterlimit="10"><path d="M590.77501,450.98484v-30.03003h18.48565v30.03003z" fill="#1d1d1d" stroke="#000000" stroke-width="0" stroke-linecap="butt"/><path d="M601.62696,432.52215c1.21347,0.39785 2.12215,2.02422 2.12215,3.97006c0,1.8073 -0.7839,3.33901 -1.86782,3.86673" fill="none" stroke="#ffffff" stroke-width="1" stroke-linecap="butt"/><path d="M599.63319,433.91215c0.95804,0.24992 1.67237,1.22114 1.67237,2.38115c0,1.14605 -0.69723,2.10783 -1.63788,2.37182" fill="none" stroke="#ffffff" stroke-width="1" stroke-linecap="butt"/><path d="M597.78228,440.55533l-2.38674,-2.21625h-1.87529l-0.05683,-4.31885h2.04577l2.21626,-2.61405z" fill="none" stroke="#ffffff" stroke-width="1" stroke-linecap="round"/><path d="M604.09696,430.52549c1.25514,0.46981 2.20937,2.82252 2.20937,5.65416c0,2.89787 -0.99937,5.29412 -2.2979,5.68402" fill="none" stroke="#303030" stroke-width="1" stroke-linecap="butt"/></g></g></svg>