<svg version="1.1" xmlns="http://www.w3.org/2000/svg" xmlns:xlink="http://www.w3.org/1999/xlink" width="120.20604" height="20.95223" viewBox="0,0,120.20604,20.95223"><g transform="translate(-0.19353,0.38949)"><g data-paper-data="{&quot;isPaintingLayer&quot;:true}" fill-rule="nonzero" stroke-linecap="butt" stroke-linejoin="miter" stroke-miterlimit="10" stroke-dasharray="" stroke-dashoffset="0" style="mix-blend-mode: normal"><path d="M117.16154,4.30526v12.16115c0,2.25889 3.23803,4.09632 3.23803,4.09632h-120.20604c0,0 3.11687,-1.83742 3.11687,-4.09632v-12.16193c0,-2.25889 2.329,-4.09632 5.19,-4.09632h103.47015c2.864,0 5.191,1.83821 5.191,4.09711z" fill="#f3f3f3" stroke="none" stroke-width="1"/><text transform="translate(23.61552,12.19143) scale(0.16976,0.16976)" font-size="40" xml:space="preserve" fill="#000000" fill-rule="nonzero" stroke="none" stroke-width="1" stroke-linecap="butt" stroke-linejoin="miter" stroke-miterlimit="10" stroke-dasharray="" stroke-dashoffset="0" font-family="Sans Serif" font-weight="normal" text-anchor="start" style="mix-blend-mode: normal"><tspan x="0" dy="0">网页</tspan></text><g stroke="#000000"><path d="M17.14922,7.29849v5.29307c0,0.31884 -0.25924,0.57819 -0.5783,0.57819h-5.47506c-0.31873,0 -0.57819,-0.25935 -0.57819,-0.57819v-5.32817c0,-0.31884 0.25946,-0.57819 0.57819,-0.57819l5.47506,0.03499c0.31906,0 0.5783,0.25946 0.5783,0.5783z" fill="#f3f3f3" stroke-width="0.5"/><path d="M17.13767,8.37158v4.17345c0,0.31884 -0.25924,0.57819 -0.5783,0.57819h-5.47506c-0.31873,0 -0.57819,-0.25935 -0.57819,-0.57819v-5.2582c0,-0.31884 0.25946,-0.57819 0.57819,-0.57819h2.45883l-0.00484,1.08464h3.02108c0.31906,0 0.5783,0.25946 0.5783,0.5783z" fill="none" stroke-width="0.5"/><text transform="translate(11.90439,10.61583) scale(0.07414,0.07414)" font-size="40" xml:space="preserve" fill="#000000" fill-rule="nonzero" stroke="#000000" stroke-width="7" stroke-linecap="butt" stroke-linejoin="miter" stroke-miterlimit="10" stroke-dasharray="" stroke-dashoffset="0" font-family="Sans Serif" font-weight="normal" text-anchor="start" style="mix-blend-mode: normal"><tspan x="0" dy="0">. . .</tspan></text></g><text transform="translate(101.86767,14.78096) scale(0.34715,0.34715)" font-size="40" xml:space="preserve" fill="#000000" fill-rule="nonzero" stroke="none" stroke-width="1" stroke-linecap="butt" stroke-linejoin="miter" stroke-miterlimit="10" stroke-dasharray="" stroke-dashoffset="0" font-family="Sans Serif" font-weight="normal" text-anchor="start" style="mix-blend-mode: normal"><tspan x="0" dy="0">×</tspan></text></g></g></svg>