<svg version="1.1" xmlns="http://www.w3.org/2000/svg" xmlns:xlink="http://www.w3.org/1999/xlink" width="814.81381" height="429.18639" viewBox="0,0,814.81381,429.18639"><defs><linearGradient x1="-6.90686" y1="207.88833" x2="806.90695" y2="207.88833" gradientUnits="userSpaceOnUse" id="color-1"><stop offset="0" stop-color="#121212"/><stop offset="1" stop-color="#000000"/></linearGradient><linearGradient x1="400.00005" y1="16.04117" x2="400.00005" y2="417.81044" gradientUnits="userSpaceOnUse" id="color-2"><stop offset="0" stop-color="#212121"/><stop offset="1" stop-color="#0f0f0f"/></linearGradient><linearGradient x1="8.84818" y1="4.16991" x2="8.84818" y2="4.91602" gradientUnits="userSpaceOnUse" id="color-3"><stop offset="0" stop-color="#20c3f1"/><stop offset="1" stop-color="#0898d6"/></linearGradient><linearGradient x1="8.84072" y1="5.56181" x2="8.84072" y2="13.02295" gradientUnits="userSpaceOnUse" id="color-4"><stop offset="0" stop-color="#fdfdfd"/><stop offset="1" stop-color="#dfdfdf"/></linearGradient><linearGradient x1="6.63036" y1="4.92761" x2="6.63036" y2="6.06965" gradientUnits="userSpaceOnUse" id="color-5"><stop offset="0" stop-color="#20c3f1"/><stop offset="1" stop-color="#0898d6"/></linearGradient><linearGradient x1="11.0673" y1="4.92761" x2="11.0673" y2="6.06965" gradientUnits="userSpaceOnUse" id="color-6"><stop offset="0" stop-color="#20c3f1"/><stop offset="1" stop-color="#0898d6"/></linearGradient></defs><g transform="translate(7.40687,6.70486)"><g data-paper-data="{&quot;isPaintingLayer&quot;:true}" fill-rule="nonzero" stroke-linecap="butt" stroke-linejoin="miter" stroke-miterlimit="10" stroke-dasharray="" stroke-dashoffset="0" style="mix-blend-mode: normal"><path d="M-6.90686,421.98153v-428.18638h813.81381v428.18639z" fill="url(#color-1)" stroke="#818181" stroke-width="1"/><path d="M-0.90085,417.81044v-401.76928h801.8018v401.76928z" fill="url(#color-2)" stroke="#818181" stroke-width="0"/><text transform="translate(17.3931,11.40926) scale(0.21773,0.21773)" font-size="40" xml:space="preserve" fill="#ffffff" fill-rule="nonzero" stroke="none" stroke-width="1" stroke-linecap="butt" stroke-linejoin="miter" stroke-miterlimit="10" stroke-dasharray="" stroke-dashoffset="0" font-family="Sans Serif" font-weight="normal" text-anchor="start" style="mix-blend-mode: normal"><tspan x="0" dy="0">Microsoft Store</tspan></text><g stroke="#000000" stroke-width="0"><path d="M6.88639,4.91602v-0.74611h3.92358v0.74612z" fill="url(#color-3)"/><path d="M6.36922,5.56181v-1.11917l0.52228,-0.27979v1.39896z" fill="#2cd4fc"/><path d="M4.69046,12.18357c-0.00005,-0.03941 0,-6.62177 0,-6.62177h8.30053c0,0 0.00082,6.59082 0,6.62177c-0.01436,0.53943 -0.36189,0.81924 -0.85803,0.83938c-0.02289,0.00093 -6.55102,-0.02316 -6.58446,-0.02402c-0.45549,-0.01172 -0.85753,-0.38009 -0.85803,-0.81535z" fill="url(#color-4)"/><g><path d="M7.04193,9.06058v-1.73808h1.73808v1.73808z" fill="#f25022"/><path d="M8.93076,9.06058v-1.73808h1.73808v1.73808z" fill="#7fba00"/><path d="M7.04193,10.9551v-1.73808h1.73808v1.73808z" fill="#00a4ef"/><path d="M8.93844,10.9551v-1.73808h1.73808v1.73808z" fill="#ffb900"/></g><path d="M10.8086,5.54924v-1.38031l0.52228,0.26114v1.11917z" fill="#2cd4fc"/><path d="M6.36922,6.06965v-1.14204h0.52228v1.14204z" fill="url(#color-5)"/><path d="M10.80616,6.06965v-1.14204h0.52228v1.14204z" fill="url(#color-6)"/></g></g></g></svg>