<svg version="1.1" xmlns="http://www.w3.org/2000/svg" xmlns:xlink="http://www.w3.org/1999/xlink" width="151.32744" height="105.03004" viewBox="0,0,151.32744,105.03004"><defs><linearGradient x1="209.40668" y1="376.39457" x2="351.37441" y2="376.39457" gradientUnits="userSpaceOnUse" id="color-1"><stop offset="0" stop-color="#121212"/><stop offset="1" stop-color="#000000"/></linearGradient><linearGradient x1="280.39055" y1="340.25746" x2="280.39055" y2="415.93635" gradientUnits="userSpaceOnUse" id="color-2"><stop offset="0" stop-color="#212121"/><stop offset="1" stop-color="#0f0f0f"/></linearGradient><linearGradient x1="218.96675" y1="320.84778" x2="218.96675" y2="321.68773" gradientUnits="userSpaceOnUse" id="color-3"><stop offset="0" stop-color="#20c3f1"/><stop offset="1" stop-color="#0898d6"/></linearGradient><linearGradient x1="218.95835" y1="322.41473" x2="218.95835" y2="330.81422" gradientUnits="userSpaceOnUse" id="color-4"><stop offset="0" stop-color="#fdfdfd"/><stop offset="1" stop-color="#dfdfdf"/></linearGradient><linearGradient x1="216.47" y1="321.70078" x2="216.47" y2="322.98644" gradientUnits="userSpaceOnUse" id="color-5"><stop offset="0" stop-color="#20c3f1"/><stop offset="1" stop-color="#0898d6"/></linearGradient><linearGradient x1="221.46495" y1="321.70078" x2="221.46495" y2="322.98644" gradientUnits="userSpaceOnUse" id="color-6"><stop offset="0" stop-color="#20c3f1"/><stop offset="1" stop-color="#0898d6"/></linearGradient></defs><g transform="translate(-204.77127,-316.19885)"><g data-paper-data="{&quot;isPaintingLayer&quot;:true}" fill-rule="nonzero" stroke-linecap="butt" stroke-linejoin="miter" stroke-miterlimit="10" stroke-dasharray="" stroke-dashoffset="0" style="mix-blend-mode: normal"><path d="M209.51339,416.96718v-80.95676h142.20454v80.95676z" fill="#f5f5f5" stroke="#818181" stroke-width="0"/><path d="M204.77127,421.22888v-105.03003h151.32744v105.03004z" fill-opacity="0.85098" fill="#1c1c1c" stroke="#000000" stroke-width="0"/><g stroke="#818181"><path d="M209.40668,416.72203v-80.65492h141.96773v80.65492z" fill="url(#color-1)" stroke-width="0.5"/><path d="M210.45441,415.93635v-75.67889h139.87227v75.67889z" fill="url(#color-2)" stroke-width="0"/></g><text transform="translate(226.71906,328.90747) scale(0.22567,0.22567)" font-size="40" xml:space="preserve" fill="#ffffff" fill-rule="nonzero" stroke="none" stroke-width="1" stroke-linecap="butt" stroke-linejoin="miter" stroke-miterlimit="10" stroke-dasharray="" stroke-dashoffset="0" font-family="Sans Serif" font-weight="normal" text-anchor="start" style="mix-blend-mode: normal"><tspan x="0" dy="0">Microsoft store</tspan></text><g stroke="#000000" stroke-width="0"><path d="M216.75823,321.68773v-0.83995h4.41703v0.83995z" fill="url(#color-3)"/><path d="M216.17602,322.41473v-1.25992l0.58796,-0.31498v1.5749z" fill="#2cd4fc"/><path d="M214.28613,329.86928c-0.00005,-0.04437 0,-7.45455 0,-7.45455h9.34443c0,0 0.00093,7.41971 0,7.45455c-0.01617,0.60727 -0.40741,0.92227 -0.96594,0.94494c-0.02577,0.00105 -7.3749,-0.02608 -7.41255,-0.02705c-0.51277,-0.0132 -0.96537,-0.42789 -0.96594,-0.9179z" fill="url(#color-4)"/><g><path d="M216.93333,326.35352v-1.95667h1.95667v1.95667z" fill="#f25022"/><path d="M219.05971,326.35352v-1.95667h1.95667v1.95667z" fill="#7fba00"/><path d="M216.93333,328.48631v-1.95667h1.95667v1.95667z" fill="#00a4ef"/><path d="M219.06836,328.48631v-1.95667h1.95667v1.95667z" fill="#ffb900"/></g><path d="M221.17372,322.40059v-1.55391l0.58796,0.29398v1.25992z" fill="#2cd4fc"/><path d="M216.17602,322.98644v-1.28567h0.58796v1.28567z" fill="url(#color-5)"/><path d="M221.17096,322.98644v-1.28567h0.58796v1.28567z" fill="url(#color-6)"/></g></g></g></svg>