<svg version="1.1" xmlns="http://www.w3.org/2000/svg" xmlns:xlink="http://www.w3.org/1999/xlink" width="143.5207" height="57.62103" viewBox="0,0,143.5207,57.62103"><g transform="translate(-656.50526,-342.73776)"><g data-paper-data="{&quot;isPaintingLayer&quot;:true}" fill-rule="nonzero" stroke-linejoin="miter" stroke-miterlimit="10" stroke-dasharray="" stroke-dashoffset="0" style="mix-blend-mode: normal"><path d="M656.50526,400.35879v-57.62103h143.5207v57.62103z" fill-opacity="0.91765" fill="#191919" stroke="none" stroke-width="0" stroke-linecap="butt"/><path d="M662.04568,394.64721v-21.37103h133.85848v21.37103z" fill="#333333" stroke="none" stroke-width="0" stroke-linecap="butt"/><g fill="none" stroke="#ffffff" stroke-width="1"><path d="M680.2131,354.06086c2.32508,0.70548 4.03842,2.84259 4.0904,5.40346c0.06464,3.18482 -2.46476,5.81903 -5.64958,5.88368c-3.18482,0.06464 -5.81903,-2.46476 -5.88368,-5.64958c-0.05309,-2.61572 1.64362,-4.86003 4.01612,-5.6144" stroke-linecap="butt"/><path d="M678.56961,358.27898l-0.12965,-6.38765" stroke-linecap="round"/></g><g fill="none" stroke="#ffffff" stroke-width="1"><path d="M672.82926,382.05722c0.58525,-2.35822 2.63163,-4.17896 5.18646,-4.36227c3.17731,-0.22798 5.93784,2.16292 6.16583,5.34023c0.22798,3.1773 -2.16293,5.93784 -5.34023,6.16583c-1.72978,0.12412 -3.33604,-0.52798 -4.47736,-1.6606" stroke-linecap="butt"/><path d="M672.92333,381.79093c0.74529,-2.31263 2.91149,-3.98903 5.47288,-3.99705c3.18546,-0.00996 5.77586,2.56428 5.78584,5.74974c0.00996,3.18546 -2.56428,5.77586 -5.74974,5.78584c-2.61625,0.00818 -4.8311,-1.7268 -5.54464,-4.1119" stroke-linecap="butt"/><path d="M674.46081,382.47164h-2.44444v-2.55556" stroke-linecap="round"/></g><text transform="translate(694.25526,362.41458) scale(0.2625,0.2625)" font-size="40" xml:space="preserve" fill="#ffffff" fill-rule="nonzero" stroke="none" stroke-width="1" stroke-linecap="butt" stroke-linejoin="miter" stroke-miterlimit="10" stroke-dasharray="" stroke-dashoffset="0" font-family="Sans Serif" font-weight="normal" text-anchor="start" style="mix-blend-mode: normal"><tspan x="0" dy="0">关机</tspan></text><text transform="translate(694.25526,387.91458) scale(0.2625,0.2625)" font-size="40" xml:space="preserve" fill="#ffffff" fill-rule="nonzero" stroke="none" stroke-width="1" stroke-linecap="butt" stroke-linejoin="miter" stroke-miterlimit="10" stroke-dasharray="" stroke-dashoffset="0" font-family="Sans Serif" font-weight="normal" text-anchor="start" style="mix-blend-mode: normal"><tspan x="0" dy="0">重启</tspan></text></g></g></svg>