<svg version="1.1" xmlns="http://www.w3.org/2000/svg" xmlns:xlink="http://www.w3.org/1999/xlink" width="811.57723" height="402.63179" viewBox="0,0,811.57723,402.63179"><g transform="translate(5.78858,-18.5369)"><g data-paper-data="{&quot;isPaintingLayer&quot;:true}" fill-rule="nonzero" stroke-linecap="butt" stroke-linejoin="miter" stroke-miterlimit="10" stroke-dasharray="" stroke-dashoffset="0" style="mix-blend-mode: normal"><path d="M-5.78858,421.16869v-402.63179h811.57723v402.63179z" fill="#272727" stroke="#818181" stroke-width="0"/><path d="M-0.90084,419.83283c0,0 0,-329.80698 0,-371.2162c0,-8.46308 2.73993,-10.10502 12.76427,-10.10502c60.28707,0 653.29617,0 777.02214,0c14.94535,0 12.01539,3.12362 12.01539,11.58671c0,41.40924 0,369.7345 0,369.7345z" fill="#444444" stroke="#818181" stroke-width="0"/><path d="M286.64822,207.44024v-23.18133h23.18133v23.18133z" fill="#f25022" stroke="#000000" stroke-width="0"/><path d="M311.84013,207.44024v-23.18132h23.18133v23.18133z" fill="#7fba00" stroke="#000000" stroke-width="0"/><path d="M286.64822,232.70809v-23.18133h23.18133v23.18133z" fill="#00a4ef" stroke="#000000" stroke-width="0"/><path d="M311.94255,232.70809v-23.18133h23.18133v23.18133z" fill="#ffb900" stroke="#000000" stroke-width="0"/><g fill="#ffffff" stroke="#ffffff"><text transform="translate(347.11074,221.02242) scale(0.9298,0.9298)" font-size="40" xml:space="preserve" fill="#ffffff" fill-rule="nonzero" stroke="#ffffff" stroke-width="1" stroke-linecap="butt" stroke-linejoin="miter" stroke-miterlimit="10" stroke-dasharray="" stroke-dashoffset="0" font-family="Sans Serif" font-weight="normal" text-anchor="start" style="mix-blend-mode: normal"><tspan x="0" dy="0">Microsof</tspan></text><text transform="translate(499.51958,221.02242) scale(0.9298,0.9298)" font-size="40" xml:space="preserve" fill="#ffffff" fill-rule="nonzero" stroke="#ffffff" stroke-width="1" stroke-linecap="butt" stroke-linejoin="miter" stroke-miterlimit="10" stroke-dasharray="" stroke-dashoffset="0" font-family="Sans Serif" font-weight="normal" text-anchor="start" style="mix-blend-mode: normal"><tspan x="0" dy="0">t</tspan></text><path d="M488.47919,204.23371v-3.25737h23.95964v3.25737z" stroke-width="0.5"/></g></g></g></svg>