<svg version="1.1" xmlns="http://www.w3.org/2000/svg" xmlns:xlink="http://www.w3.org/1999/xlink" width="98.20292" height="13.83441" viewBox="0,0,98.20292,13.83441"><defs><linearGradient x1="46.19099" y1="220.34911" x2="54.32871" y2="220.34911" gradientUnits="userSpaceOnUse" id="color-1"><stop offset="0" stop-color="#384a92"/><stop offset="1" stop-color="#4fedff"/></linearGradient><linearGradient x1="45.94149" y1="217.52031" x2="45.94149" y2="227.79886" gradientUnits="userSpaceOnUse" id="color-2"><stop offset="0" stop-color="#bb8af6"/><stop offset="1" stop-color="#005096"/></linearGradient><linearGradient x1="44.6193" y1="225.86685" x2="54.36124" y2="225.86685" gradientUnits="userSpaceOnUse" id="color-3"><stop offset="0" stop-color="#e6aaff"/><stop offset="1" stop-color="#654283"/></linearGradient></defs><g transform="translate(-42.64665,-216.10726)"><g data-paper-data="{&quot;isPaintingLayer&quot;:true}" fill-rule="nonzero" stroke-linejoin="miter" stroke-miterlimit="10" stroke-dasharray="" stroke-dashoffset="0" style="mix-blend-mode: normal"><text transform="translate(60.2681,225.07144) scale(0.20513,0.20513)" font-size="40" xml:space="preserve" fill-opacity="0.91765" fill="#ffffff" fill-rule="nonzero" stroke="none" stroke-width="1" stroke-linecap="butt" stroke-linejoin="miter" stroke-miterlimit="10" stroke-dasharray="" stroke-dashoffset="0" font-family="Sans Serif" font-weight="normal" text-anchor="start" style="mix-blend-mode: normal"><tspan x="0" dy="0">Microsoft 365(office)</tspan></text><g stroke="#ffffff" stroke-width="0" stroke-linecap="round"><path d="M46.26143,217.52544c0,0 1.18962,-0.90285 2.18898,-0.87469c0.47677,0.01343 4.74518,2.43265 4.74518,2.43265c0,0 0.79286,0.64391 0.93463,0.88394c0.14511,0.2627 0.17192,1.21343 0.17192,1.21343l0.02656,2.86737c0,0 -3.86469,-2.18982 -3.9648,-2.21206c-0.33843,-0.33901 -0.75446,-0.84228 -1.7859,-0.90327c-0.89835,0.00477 -1.69352,0.35364 -2.37893,1.66646c-0.03652,0.05677 0.06235,-5.07382 0.06235,-5.07382z" fill="url(#color-1)"/><path d="M43.66625,227.07697c0,0 -0.63323,-0.49063 -0.83199,-0.83812c-0.18863,-0.32978 -0.1876,-1.20207 -0.1876,-1.20207l0.01467,-3.79472c0,0 0.06876,-0.82977 0.22257,-1.07134c0.14404,-0.22624 0.63304,-0.6842 0.63304,-0.6842l2.80329,-1.9662c0,0 -0.09116,3.56093 -0.10772,4.81621c-0.01047,0.79398 0.10742,1.42667 0.27872,1.72923c0.70598,1.47806 2.25592,1.36195 2.74205,1.23493c0.13956,-0.02273 -4.58215,2.49817 -4.58215,2.49817z" fill="url(#color-2)"/><path d="M54.21842,226.15632c-0.14946,0.29124 -0.55059,0.58926 -0.55059,0.58926c0,0 -4.53641,3.19356 -5.33483,3.19609c-1.00661,0.00319 -3.71369,-2.20399 -3.71369,-2.20399l4.48879,-2.41844c0,0 0.96123,-0.42892 1.21127,-0.82542c0.11277,-0.17883 1.02535,-1.32664 0.04373,-2.70167c-0.0129,-0.01827 3.97953,2.17794 3.97953,2.17794l0.01858,1.42438c0,0 0.00667,0.47062 -0.14279,0.76185z" fill="url(#color-3)"/></g></g></g></svg>