<svg version="1.1" xmlns="http://www.w3.org/2000/svg" xmlns:xlink="http://www.w3.org/1999/xlink" width="814.81381" height="430.8713" viewBox="0,0,814.81381,430.8713"><defs><linearGradient x1="-6.54456" y1="206.33762" x2="807.26925" y2="206.33762" gradientUnits="userSpaceOnUse" id="color-1"><stop offset="0" stop-color="#121212"/><stop offset="1" stop-color="#000000"/></linearGradient><linearGradient x1="400.08352" y1="174.33293" x2="400.08352" y2="182.87995" gradientUnits="userSpaceOnUse" id="color-2"><stop offset="0" stop-color="#20c3f1"/><stop offset="1" stop-color="#0898d6"/></linearGradient><linearGradient x1="399.99805" y1="190.27763" x2="399.99805" y2="275.74771" gradientUnits="userSpaceOnUse" id="color-3"><stop offset="0" stop-color="#fdfdfd"/><stop offset="1" stop-color="#dfdfdf"/></linearGradient><linearGradient x1="374.67755" y1="183.01268" x2="374.67755" y2="196.09515" gradientUnits="userSpaceOnUse" id="color-4"><stop offset="0" stop-color="#20c3f1"/><stop offset="1" stop-color="#0898d6"/></linearGradient><linearGradient x1="425.50425" y1="183.01268" x2="425.50425" y2="196.09516" gradientUnits="userSpaceOnUse" id="color-5"><stop offset="0" stop-color="#20c3f1"/><stop offset="1" stop-color="#0898d6"/></linearGradient></defs><g transform="translate(7.04457,9.09803)"><g data-paper-data="{&quot;isPaintingLayer&quot;:true}" fill-rule="nonzero" stroke-linecap="butt" stroke-linejoin="miter" stroke-miterlimit="10" stroke-dasharray="" stroke-dashoffset="0" style="mix-blend-mode: normal"><path d="M-6.54456,421.27327v-429.8713h813.81381v429.8713z" fill="url(#color-1)" stroke="#818181" stroke-width="1"/><path d="M377.61049,182.87994v-8.54701h44.94606v8.54702z" fill="url(#color-2)" stroke="#000000" stroke-width="0"/><path d="M371.68607,190.27763v-12.82051l5.98291,-3.20513v16.02564z" fill="#2cd4fc" stroke="#000000" stroke-width="0"/><path d="M352.45531,266.13234c-0.00052,-0.45147 0,-75.8547 0,-75.8547h95.08547c0,0 0.00944,75.5002 0,75.8547c-0.16451,6.1794 -4.14561,9.38463 -9.82906,9.61538c-0.26227,0.01065 -75.04421,-0.26535 -75.42735,-0.27521c-5.21777,-0.13428 -9.82329,-4.35405 -9.82906,-9.34017z" fill="url(#color-3)" stroke="#000000" stroke-width="0"/><g stroke="#000000" stroke-width="0"><path d="M379.3922,230.3573v-19.91038h19.91038v19.91038z" fill="#f25022"/><path d="M401.02949,230.35731v-19.91037h19.91038v19.91038z" fill="#7fba00"/><path d="M379.3922,252.05977v-19.91038h19.91038v19.91038z" fill="#00a4ef"/><path d="M401.11744,252.05977v-19.91038h19.91038v19.91038z" fill="#ffb900"/></g><path d="M422.54079,190.13368v-15.81197l5.98291,2.99145v12.82052z" fill="#2cd4fc" stroke="#000000" stroke-width="0"/><path d="M371.68607,196.09515v-13.08247h5.98291v13.08247z" fill="url(#color-4)" stroke="#000000" stroke-width="0"/><path d="M422.51279,196.09516v-13.08248h5.98291v13.08248z" fill="url(#color-5)" stroke="#000000" stroke-width="0"/></g></g></svg>