<svg version="1.1" xmlns="http://www.w3.org/2000/svg" xmlns:xlink="http://www.w3.org/1999/xlink" width="113.68692" height="143.99478" viewBox="0,0,113.68692,143.99478"><g transform="translate(-550.20079,-289.18196)"><g data-paper-data="{&quot;isPaintingLayer&quot;:true}" fill-rule="nonzero" stroke-linecap="butt" stroke-linejoin="miter" stroke-miterlimit="10" stroke-dasharray="" stroke-dashoffset="0" style="mix-blend-mode: normal"><path d="M663.88771,422.42659c0,5.93664 -4.81478,10.75016 -10.75016,10.75016h-92.18784c-5.93664,0 -10.74892,-4.81478 -10.74892,-10.75016v-46.80227c0,-5.93664 4.81228,-10.74892 10.74892,-10.74892h92.18659c5.93914,0 10.75016,4.81228 10.75016,10.74892v46.80227z" fill="#cccccc" stroke="none" stroke-width="1"/><path d="M659.62139,375.62432v46.80102c0,3.57548 -2.9071,6.48383 -6.48508,6.48383h-92.18659c-3.57423,0 -6.48383,-2.90836 -6.48383,-6.48383v-46.80227c0,-3.57548 2.9096,-6.48383 6.48383,-6.48383h92.18659c3.57797,0 6.48508,2.9096 6.48508,6.48508z" fill="#ffffff" stroke="none" stroke-width="1"/><path d="M550.2008,378.71526v-78.78437c0,-5.93664 4.81228,-10.74892 10.74892,-10.74892h92.18659c5.93914,0 10.75016,4.81228 10.75016,10.74892v79.17921z" fill="#cccccc" stroke="none" stroke-width="1"/><path d="M659.62139,299.93084v86.2851h-105.1555v-86.28635c0,-3.57548 2.9096,-6.48383 6.48383,-6.48383h92.18659c3.57797,0 6.48508,2.9096 6.48508,6.48508z" fill="#ffffff" stroke="none" stroke-width="1"/><text transform="translate(597.94643,367.42999) scale(0.77576,0.77576)" font-size="40" xml:space="preserve" fill="#000000" fill-rule="nonzero" stroke="none" stroke-width="1" stroke-linecap="butt" stroke-linejoin="miter" stroke-miterlimit="10" stroke-dasharray="" stroke-dashoffset="0" font-family="Sans Serif" font-weight="normal" text-anchor="start" style="mix-blend-mode: normal"><tspan x="0" dy="0">×</tspan></text><path d="M587.90541,356.48208l9.03153,-10.10307h28.16614v20.5123h-28.16614z" fill="none" stroke="#000000" stroke-width="2.5"/></g></g></svg>