<svg version="1.1" xmlns="http://www.w3.org/2000/svg" xmlns:xlink="http://www.w3.org/1999/xlink" width="803.8018" height="451.45057" viewBox="0,0,803.8018,451.45057"><g transform="translate(1.9009,0.47442)"><g data-paper-data="{&quot;isPaintingLayer&quot;:true}" fill-rule="nonzero" stroke-linecap="butt" stroke-linejoin="miter" stroke-miterlimit="10" stroke-dasharray="" stroke-dashoffset="0" style="mix-blend-mode: normal"><path d="M-0.9009,449.47453v-448.94895h801.8018v448.94895z" fill="#0c4880" stroke="#000000" stroke-width="2"/><path d="M-0.9009,450.97615v-30.03003h801.8018v30.03003z" fill-opacity="0.91765" fill="#000000" stroke="#000000" stroke-width="0"/><path d="M-0.9009,56.57072v-54.54354h801.8018v54.54354z" fill-opacity="0.91765" fill="#000000" stroke="#000000" stroke-width="0"/><text transform="translate(221.916,114.06342) scale(0.89042,0.89042)" font-size="40" xml:space="preserve" fill="#ffffff" fill-rule="nonzero" stroke="none" stroke-width="1" stroke-linecap="butt" stroke-linejoin="miter" stroke-miterlimit="10" stroke-dasharray="" stroke-dashoffset="0" font-family="Sans Serif" font-weight="normal" text-anchor="start" style="mix-blend-mode: normal"><tspan x="0" dy="0">谁将会使用这台电脑？</tspan></text><path d="M483.76483,56.02558v-2h148.75v2z" fill="#ffffff" stroke="#000000" stroke-width="0"/><text transform="translate(534.65373,36.92795) scale(0.5,0.46746)" font-size="40" xml:space="preserve" fill="#bebebe" fill-rule="nonzero" stroke="none" stroke-width="1" stroke-linecap="butt" stroke-linejoin="miter" stroke-miterlimit="10" stroke-dasharray="" stroke-dashoffset="0" font-family="Sans Serif" font-weight="normal" text-anchor="start" style="mix-blend-mode: normal"><tspan x="0" dy="0">账户</tspan></text><path d="M342.91971,209.98498c0,-31.52431 25.55555,-57.08029 57.08029,-57.08029c31.52431,0 57.08029,25.55555 57.08029,57.08029c0,31.52431 -25.55555,57.08029 -57.08029,57.08029c-31.52431,0 -57.08029,-25.55555 -57.08029,-57.08029z" fill="none" stroke="#ffffff" stroke-width="1.5"/><g fill="none" stroke="#ffffff" stroke-width="5"><path d="M376.26911,235.59325c1.79062,-11.26301 12.52702,-19.56389 25.00857,-18.89137c11.34359,0.6112 20.45771,8.43637 22.45321,18.40837"/><path d="M383.81955,200.55717c0,-8.93614 7.24419,-16.18045 16.18045,-16.18045c8.93614,0 16.18045,7.24419 16.18045,16.18045c0,8.93614 -7.24419,16.18045 -16.18045,16.18045c-8.93614,0 -16.18045,-7.24419 -16.18045,-16.18045z"/></g></g></g></svg>