<svg version="1.1" xmlns="http://www.w3.org/2000/svg" xmlns:xlink="http://www.w3.org/1999/xlink" width="801.8018" height="30.1967" viewBox="0,0,801.8018,30.1967"><g transform="translate(0.9009,-420.94607)"><g data-paper-data="{&quot;isPaintingLayer&quot;:true}" fill-rule="nonzero" stroke-linecap="butt" stroke-linejoin="miter" stroke-miterlimit="10" stroke-dasharray="" stroke-dashoffset="0" style="mix-blend-mode: normal"><path d="M-0.9009,450.9761v-30.03003h801.8018v30.03003z" fill-opacity="0.90196" fill="#000000" stroke="#000000" stroke-width="0"/><path d="M748.8661,451.14277v-30.03003h35.31156v30.03003z" fill="#1d1d1d" stroke="#000000" stroke-width="0"/><path d="M759.96168,439.399v-9.65102h13.18521v9.65102h-4.19458l-2.4728,2.77524l-2.34138,-2.77524z" fill="none" stroke="#ffffff" stroke-width="0.5"/><g stroke="#ffffff"><path d="M46.51877,438.2316v-4.46882h8.32117v4.46882z" fill="none" stroke-width="1"/><path d="M54.83994,429.9133v1.66518h-8.32117v-1.77078" fill="none" stroke-width="1"/><path d="M46.51876,441.99968v-1.66519h8.32117v1.77078" data-paper-data="{&quot;index&quot;:null}" fill="none" stroke-width="1"/><path d="M56.80048,434.04316v-0.90229h0.70179v0.90229z" fill-opacity="0.99216" fill="#1d1d1d" stroke-width="1"/><path d="M57.10682,435.37107c0.02943,0.00216 0.05915,0.00325 0.08911,0.00325v6.68367c-0.02997,0 -0.05969,0.0011 -0.08911,0.00325z" fill-opacity="0.99216" fill="#1d1d1d" stroke-width="0.5"/><path d="M57.10682,430.07194h0.08911v1.64864c-0.02997,0 -0.05969,0.0011 -0.08911,0.00325z" fill-opacity="0.99216" fill="#1d1d1d" stroke-width="0.5"/></g><g stroke="none" stroke-width="0"><path d="M10.16228,440.71289v-9.57619l13.17654,-1.45254v12.55388z" fill="#ffffff"/><path d="M10.17717,436.16128v-0.52654h13.17031v0.52654z" fill-opacity="0.91765" fill="#000000"/><path d="M15.6172,441.36142v-10.82371l0.49816,-0.06933v10.94852z" fill-opacity="0.91765" fill="#000000"/></g><path d="M791.24512,450.97611v-30.03003h1.61156v30.03003z" fill-opacity="0.83529" fill="#ffffff" stroke="#000000" stroke-width="0"/></g></g></svg>