<svg version="1.1" xmlns="http://www.w3.org/2000/svg" xmlns:xlink="http://www.w3.org/1999/xlink" width="801.80181" height="302.22177" viewBox="0,0,801.80181,302.22177"><g transform="translate(0.9009,-118.41982)"><g data-paper-data="{&quot;isPaintingLayer&quot;:true}" fill-rule="nonzero" stroke-linejoin="miter" stroke-miterlimit="10" stroke-dasharray="" stroke-dashoffset="0" style="mix-blend-mode: normal"><path d="M-0.9009,420.6416v-302.22177h801.8018v302.22177z" fill="#f5f5f5" stroke="#818181" stroke-width="0" stroke-linecap="butt"/><path d="M646.22524,420.61934v-302.19951h154.67567v302.19951z" fill="#f5f5f5" stroke="#818181" stroke-width="0" stroke-linecap="butt"/><path d="M736.61895,145.05982c30.05951,0.92455 54.19615,24.58475 55.12683,53.90396c0.02171,0.68407 -0.80684,152.93353 -0.82865,153.51866c-1.09751,29.44858 -25.55692,53.01319 -55.72868,53.62385c-0.50242,0.01017 -28.08481,0.00314 -28.4826,-0.00695c-30.56026,-0.77512 -55.07864,-25.04689 -55.4692,-54.94544c-0.00447,-0.34218 0.82793,-151.80317 0.84652,-152.33993c1.02547,-29.62138 25.68617,-53.32591 56.05552,-53.7757c0.39583,-0.00586 27.97669,0.00605 28.48027,0.02154z" fill="#0f5fce" stroke="#0061e8" stroke-width="2" stroke-linecap="butt"/><path d="M685.40237,303.34483h72.07207" fill="none" stroke="#e8e8e8" stroke-width="7.5" stroke-linecap="round"/><path d="M683.90087,237.08465h72.07207" fill="none" stroke="#e8e8e8" stroke-width="7.5" stroke-linecap="round"/></g></g></svg>