<svg version="1.1" xmlns="http://www.w3.org/2000/svg" xmlns:xlink="http://www.w3.org/1999/xlink" width="475.89347" height="301.29921" viewBox="0,0,475.89347,301.29921"><defs><linearGradient x1="399.98606" y1="82.2822" x2="399.98606" y2="367.89204" gradientUnits="userSpaceOnUse" id="color-1"><stop offset="0" stop-color="#95afd6"/><stop offset="1" stop-color="#5d80a8"/></linearGradient><linearGradient x1="176.90143" y1="88.24393" x2="176.90143" y2="93.71866" gradientUnits="userSpaceOnUse" id="color-2"><stop offset="0" stop-color="#303030"/><stop offset="1" stop-color="#616161"/></linearGradient><linearGradient x1="176.90142" y1="88.24393" x2="176.90142" y2="93.71866" gradientUnits="userSpaceOnUse" id="color-3"><stop offset="0" stop-color="#49b0fc"/><stop offset="1" stop-color="#3345f6"/></linearGradient><radialGradient cx="176.62922" cy="90.40877" r="2.77929" gradientUnits="userSpaceOnUse" id="color-4"><stop offset="0" stop-color="#59ed2b"/><stop offset="1" stop-color="#2d8211"/></radialGradient><linearGradient x1="617.24385" y1="86.74564" x2="617.24385" y2="95.47029" gradientUnits="userSpaceOnUse" id="color-5"><stop offset="0" stop-color="#ffb4b4"/><stop offset="1" stop-color="#8b2323"/></linearGradient></defs><g transform="translate(-162.05327,-81.85797)"><g data-paper-data="{&quot;isPaintingLayer&quot;:true}" fill-rule="nonzero" stroke-linecap="butt" stroke-linejoin="miter" stroke-miterlimit="10" stroke-dasharray="" stroke-dashoffset="0" style="mix-blend-mode: normal"><path d="M162.96661,382.67786l-0.66334,-283.88303c0.25,-18.82346 -2.10159,-16.74829 18.97188,-16.49829h440.9165c14.58391,0.5 15.72719,-1.57517 15.47719,13.74829l-0.35043,286.86222z" fill="url(#color-1)" stroke="#000000" stroke-width="0.5"/><path d="M164.45603,380.62283v-282.02703h470.06006v282.02703c0,0 -436.24184,0 -465.1455,0c-2.97099,0 -4.91456,0 -4.91456,0z" fill="#00006d" stroke="#000000" stroke-width="0"/><g><path d="M172.27528,93.71866v-5.47474h9.2523v5.47474z" fill="#00006d" stroke="url(#color-2)" stroke-width="2.5"/><path d="M172.27527,93.71866v-5.47474h9.25231v5.47474z" fill="url(#color-3)" stroke="#000000" stroke-width="0"/><path d="M176.29849,88.99619c0,0 0.97503,-2.37903 1.87371,-2.79837c0.42997,-0.3147 0.96936,-0.31554 0.96955,-0.00083c-0.62505,0.77266 -1.87366,2.82422 -1.87366,2.82422c0,0 1.18504,-0.74244 1.37448,-0.52005c0.18944,0.2225 0.18971,0.58318 0.0005,0.80584c-0.60552,0.71287 -1.51628,2.04578 -1.51628,2.04578c-0.1892,0.22266 -0.49617,0.22292 -0.68556,0.00059c0,0 -0.73229,-1.14858 -1.48025,-2.02644c-0.18957,-0.2225 -0.18979,-0.58324 -0.00049,-0.80585c0.18916,-0.22271 1.33801,0.4751 1.33801,0.4751z" fill="url(#color-4)" stroke="#ffffff" stroke-width="0"/></g><text transform="translate(186.60064,93.30417) scale(0.17476,0.17476)" font-size="40" xml:space="preserve" fill="#000000" fill-rule="nonzero" stroke="#000000" stroke-width="3" stroke-linecap="butt" stroke-linejoin="miter" stroke-miterlimit="10" stroke-dasharray="" stroke-dashoffset="0" font-family="Sans Serif" font-weight="normal" text-anchor="start" style="mix-blend-mode: normal"><tspan x="0" dy="0">Windows安装程序</tspan></text><path d="M627.41865,87.69228v6.83156c0,0.52191 -0.56258,0.94645 -1.25499,0.94645h-17.83986c-0.69168,0 -1.25474,-0.42453 -1.25474,-0.94645v-6.83175c0,-0.52191 0.56306,-0.94645 1.25474,-0.94645h17.83986c0.6924,0 1.25499,0.42472 1.25499,0.94663z" fill="url(#color-5)" stroke="#4e0000" stroke-width="0.5"/><path d="M606.01864,87.69228v6.83156c0,0.52191 -0.56258,0.94645 -1.25499,0.94645h-17.83986c-0.69168,0 -1.25474,-0.42453 -1.25474,-0.94645v-6.83175c0,-0.52191 0.56306,-0.94645 1.25474,-0.94645h17.83986c0.69241,0 1.25499,0.42472 1.25499,0.94663z" fill="none" stroke="#838383" stroke-width="0.5"/><path d="M584.81863,87.69228v6.83156c0,0.52191 -0.56258,0.94645 -1.25499,0.94645h-17.83986c-0.69168,0 -1.25474,-0.42453 -1.25474,-0.94645v-6.83175c0,-0.52191 0.56306,-0.94645 1.25474,-0.94645h17.83986c0.69241,0 1.25499,0.42472 1.25499,0.94663z" fill="none" stroke="#838383" stroke-width="0.5"/><text transform="translate(613.88082,93.20123) scale(0.32231,0.17498)" font-size="40" xml:space="preserve" fill="#ffffff" fill-rule="nonzero" stroke="#000000" stroke-width="1" stroke-linecap="butt" stroke-linejoin="miter" stroke-miterlimit="10" stroke-dasharray="" stroke-dashoffset="0" font-family="Sans Serif" font-weight="normal" text-anchor="start" style="mix-blend-mode: normal"><tspan x="0" dy="0">x</tspan></text><path d="M591.02125,93.85123v-5.2h10.2v5.2z" fill="#ffffff" stroke="#000000" stroke-width="0.5"/><path d="M593.02125,92.25123v-2.2h6v2.2z" fill="#cdcecf" stroke="#000000" stroke-width="0.5"/><path d="M571.22124,93.85123v-2.2h6.6v2.2z" fill="#ffffff" stroke="#000000" stroke-width="0.5"/><g stroke="none"><g stroke-width="0"><path d="M311.21371,167.43456v-26.03343l35.82119,-3.94881v34.12845z" fill="#ffffff"/><path d="M311.25418,155.06074v-1.43143h35.80425v1.43143z" fill="#00006d"/><path d="M326.04322,169.19763v-29.42488l1.35428,-0.18848v29.76419z" fill="#00006d"/></g><text transform="translate(360.71097,164.26822) scale(0.62664,0.63001)" font-size="40" xml:space="preserve" fill="#ffffff" fill-rule="nonzero" stroke="none" stroke-width="1" stroke-linecap="butt" stroke-linejoin="miter" stroke-miterlimit="10" stroke-dasharray="" stroke-dashoffset="0" font-family="Sans Serif" font-weight="normal" text-anchor="start" style="mix-blend-mode: normal"><tspan x="0" dy="0">Windows</tspan></text><text transform="translate(471.82508,168.52866) scale(0.16409,0.16409)" font-size="40" xml:space="preserve" fill="#ffffff" fill-rule="nonzero" stroke="none" stroke-width="1" stroke-linecap="butt" stroke-linejoin="miter" stroke-miterlimit="10" stroke-dasharray="" stroke-dashoffset="0" font-family="Sans Serif" font-weight="normal" text-anchor="start" style="mix-blend-mode: normal"><tspan x="0" dy="0">PROS</tspan></text></g><g><path d="M180.95754,339.73147c0,0.93369 -0.75183,1.6906 -1.67927,1.6906c-0.92743,0 -1.67927,-0.75691 -1.67927,-1.6906c0,-0.93369 0.75183,-1.6906 1.67927,-1.6906c0.92743,0 1.67927,0.75691 1.67927,1.6906z" fill="none" stroke="#ffffff" stroke-width="0.5"/><path d="M180.41818,339.73147c0,0.63581 -0.51197,1.15124 -1.14352,1.15124c-0.63155,0 -1.14352,-0.51543 -1.14352,-1.15124c0,-0.63581 0.51197,-1.15124 1.14352,-1.15124c0.63155,0 1.14352,0.51543 1.14352,1.15124z" fill="none" stroke="#ffffff" stroke-width="0.5"/><text transform="translate(182.30826,341.27992) scale(0.12726,0.12726)" font-size="40" xml:space="preserve" fill="#ffffff" fill-rule="nonzero" stroke="none" stroke-width="1" stroke-linecap="butt" stroke-linejoin="miter" stroke-miterlimit="10" stroke-dasharray="" stroke-dashoffset="0" font-family="Sans Serif" font-weight="normal" text-anchor="start" style="mix-blend-mode: normal"><tspan x="0" dy="0">2019 Microsoft Corporation。保留所有权。</tspan></text></g></g></g></svg>