<svg version="1.1" xmlns="http://www.w3.org/2000/svg" xmlns:xlink="http://www.w3.org/1999/xlink" width="673.2214" height="12.51371" viewBox="0,0,673.2214,12.51371"><g transform="translate(-55.60545,-22.43594)"><g data-paper-data="{&quot;isPaintingLayer&quot;:true}" fill-rule="nonzero" stroke="none" stroke-width="1" stroke-linecap="butt" stroke-linejoin="miter" stroke-miterlimit="10" stroke-dasharray="" stroke-dashoffset="0" style="mix-blend-mode: normal"><path d="M728.82685,28.69267c0,3.45014 -2.80707,6.25698 -6.25698,6.25698h-660.70769c-3.44991,0 -6.25673,-2.8066 -6.25673,-6.25698c0,-3.4499 2.80659,-6.25673 6.25673,-6.25673h660.70769c3.4499,0 6.25698,2.80683 6.25698,6.25673z" fill="#c4ebff"/><path d="M727.74892,28.69267c0,2.86044 -2.3186,5.17928 -5.17904,5.17928h-660.70769c-2.86044,0 -5.17928,-2.31884 -5.17928,-5.17928v0c0,-2.8602 2.31884,-5.17904 5.17928,-5.17904h660.70769c2.86044,0 5.17904,2.31885 5.17904,5.17904z" fill="#ffffff"/></g></g></svg>