<svg version="1.1" xmlns="http://www.w3.org/2000/svg" xmlns:xlink="http://www.w3.org/1999/xlink" width="113.68692" height="145.37101" viewBox="0,0,113.68692,145.37101"><g transform="translate(-550.20079,-136.18561)"><g data-paper-data="{&quot;isPaintingLayer&quot;:true}" fill-rule="nonzero" stroke="none" stroke-width="1" stroke-linecap="butt" stroke-linejoin="miter" stroke-miterlimit="10" stroke-dasharray="" stroke-dashoffset="0" style="mix-blend-mode: normal"><path d="M663.88771,270.80646c0,5.93664 -4.81478,10.75016 -10.75016,10.75016h-92.18784c-5.93664,0 -10.74892,-4.81478 -10.74892,-10.75016v-88.26055h113.68567v88.26055z" fill="#747474"/><path d="M659.62139,224.00421v46.80102c0,3.57548 -2.9071,6.48383 -6.48508,6.48383h-92.18659c-3.57423,0 -6.48383,-2.90836 -6.48383,-6.48383v-46.80227c0,-3.57548 2.9096,-6.48383 6.48383,-6.48383h92.18659c3.57797,0 6.48508,2.9096 6.48508,6.48508z" fill="#ebebeb"/><path d="M663.88771,193.7368c0,5.93664 -4.81478,10.75016 -10.75016,10.75016h-92.18784c-5.93664,0 -10.74892,-4.81478 -10.74892,-10.75016v-46.80227c0,-5.93664 4.81228,-10.74892 10.74892,-10.74892h92.18659c5.93914,0 10.75016,4.81228 10.75016,10.74892v46.80227z" fill="#747474"/><path d="M659.62139,146.93453v80.75733h-105.1555v-80.75858c0,-3.57548 2.9096,-6.48383 6.48383,-6.48383h92.18659c3.57797,0 6.48508,2.9096 6.48508,6.48508z" fill="#ebebeb"/><text transform="translate(597.94643,220.93382) scale(0.77576,0.77576)" font-size="40" xml:space="preserve" fill="#000000" fill-rule="nonzero" stroke="none" stroke-width="1" stroke-linecap="butt" stroke-linejoin="miter" stroke-miterlimit="10" stroke-dasharray="" stroke-dashoffset="0" font-family="Sans Serif" font-weight="normal" text-anchor="start" style="mix-blend-mode: normal"><tspan x="0" dy="0">C</tspan></text></g></g></svg>