<svg version="1.1" xmlns="http://www.w3.org/2000/svg" xmlns:xlink="http://www.w3.org/1999/xlink" width="786.75758" height="83.61167" viewBox="0,0,786.75758,83.61167"><g transform="translate(0.9009,-367.36437)"><g data-paper-data="{&quot;isPaintingLayer&quot;:true}" fill-rule="nonzero" stroke-linejoin="miter" stroke-miterlimit="10" stroke-dasharray="" stroke-dashoffset="0" style="mix-blend-mode: normal"><path d="M-0.9009,450.97604v-30.03003h35.31156v30.03003z" fill-opacity="0.91765" fill="#000000" stroke="#000000" stroke-width="0" stroke-linecap="butt"/><g stroke="none" stroke-width="0" stroke-linecap="butt"><path d="M10.16228,440.71283v-9.57619l13.17654,-1.45254v12.55388z" fill="#ffffff"/><path d="M10.17717,436.16122v-0.52654h13.17031v0.52654z" fill-opacity="0.91765" fill="#000000"/><path d="M15.6172,441.36136v-10.82371l0.49816,-0.06933v10.94852z" fill-opacity="0.91765" fill="#000000"/></g><path d="M784.24512,450.97604v-30.03003h1.61156v30.03003z" fill-opacity="0.83529" fill="#ffffff" stroke="#000000" stroke-width="0" stroke-linecap="butt"/><path d="M748.8661,450.47604v-30.03003h35.31156v30.03003z" fill-opacity="0.91765" fill="#000000" stroke="#000000" stroke-width="0" stroke-linecap="butt"/><path d="M759.96168,439.39894v-9.65102h13.18521v9.65102h-4.19458l-2.4728,2.77524l-2.34138,-2.77524z" fill="none" stroke="#ffffff" stroke-width="0.5" stroke-linecap="butt"/><path d="M633.02017,450.47604v-30.03003h18.91621v30.03003z" fill-opacity="0.91765" fill="#000000" stroke="#000000" stroke-width="0" stroke-linecap="butt"/><text transform="translate(635.94382,439.76419) scale(0.32963,0.32963)" font-size="40" xml:space="preserve" fill-opacity="0.91765" fill="#ffffff" fill-rule="nonzero" stroke="none" stroke-width="1" stroke-linecap="butt" stroke-linejoin="miter" stroke-miterlimit="10" stroke-dasharray="" stroke-dashoffset="0" font-family="&quot;Microsoft YaHei&quot;, &quot;微软雅黑&quot;, STXihei, &quot;华文细黑&quot;" font-weight="normal" text-anchor="start" style="mix-blend-mode: normal"><tspan x="0" dy="0">中</tspan></text><g fill="none" stroke="#ffffff" stroke-width="1"><path d="M659.24723,378.13357c0,5.67152 -4.49437,10.26921 -10.03844,10.26921c-5.54408,0 -10.03844,-4.59768 -10.03844,-10.2692c0,-5.67152 4.49437,-10.26921 10.03844,-10.26921c5.54408,0 10.03844,4.59769 10.03844,10.26921z" stroke-linecap="butt"/><path d="M653.51807,378.28981c0,5.64276 -1.99929,10.21713 -4.46553,10.21713c-2.46624,0 -4.46552,-4.57436 -4.46552,-10.21713c0,-5.64276 1.99928,-10.21713 4.46552,-10.21713c2.46624,0 4.46553,4.57437 4.46553,10.21713z" stroke-linecap="butt"/><path d="M639.5071,375.29481l19.16667,0.10417" stroke-linecap="round"/><path d="M639.92377,381.96148l18.4375,0.10417" stroke-linecap="round"/></g><g stroke="#ffffff" stroke-width="1"><g fill="none"><path d="M609.84645,396.3404c-1.31821,0.65099 -2.79675,1.01587 -4.35859,1.01587c-5.54408,0 -10.03844,-4.59768 -10.03844,-10.2692c0,-5.67152 4.49437,-10.26921 10.03844,-10.26921c5.54408,0 10.03844,4.59769 10.03844,10.26921v-0.00001c0,0.80167 -0.0898,1.58188 -0.25966,2.33069" stroke-linecap="butt"/><path d="M608.22657,395.02282c-0.77956,1.52009 -1.79042,2.4376 -2.89495,2.4376c-2.46624,0 -4.46552,-4.57436 -4.46552,-10.21712c0,-5.64276 1.99928,-10.21713 4.46552,-10.21713c2.46624,0 4.46552,4.57437 4.46552,10.21713c0,0.34422 -0.00744,0.68446 -0.02197,1.01994" stroke-linecap="butt"/><path d="M595.78617,384.2483l19.16667,0.10417" stroke-linecap="round"/><path d="M596.20284,390.91497l11.28706,0.06377" stroke-linecap="round"/></g><path d="M616.91388,392.34239c0,2.72931 -2.29064,4.94186 -5.11628,4.94186c-2.82564,0 -5.11628,-2.21255 -5.11628,-4.94186c0,-2.72931 2.29064,-4.94186 5.11628,-4.94186c2.82564,0 5.11628,2.21255 5.11628,4.94186z" fill-opacity="0.91765" fill="#000000" stroke-linecap="butt"/><path d="M614.5883,388.33076l-5.46512,7.44186" fill="none" stroke-linecap="round"/></g><path d="M612.50596,450.35976v-30.03003h20.36065v30.03003z" fill-opacity="0.91765" fill="#000000" stroke="#000000" stroke-width="0" stroke-linecap="butt"/><g stroke="#ffffff" stroke-width="0.8"><g fill="none"><path d="M625.95589,442.01636c-0.9332,0.46084 -1.97989,0.71915 -3.08555,0.71915c-3.92477,0 -7.10644,-3.2548 -7.10644,-7.2698c0,-4.015 3.18166,-7.26981 7.10644,-7.26981c3.92477,0 7.10644,3.25481 7.10644,7.26981v-0.00001c0,0.56752 -0.06357,1.11985 -0.18382,1.64995" stroke-linecap="butt"/><path d="M624.80915,441.08362c-0.55187,1.0761 -1.26748,1.72563 -2.04941,1.72563c-1.74591,0 -3.16124,-3.23829 -3.16124,-7.23293c0,-3.99464 1.41533,-7.23294 3.16124,-7.23294c1.74591,0 3.16124,3.2383 3.16124,7.23294c0,0.24369 -0.00527,0.48455 -0.01555,0.72205" stroke-linecap="butt"/><path d="M616.00231,433.45609l13.56853,0.07374" stroke-linecap="round"/><path d="M624.28765,438.22074l-7.99037,-0.04515" stroke-linecap="round"/></g><path d="M630.95911,439.18608c0,1.93214 -1.6216,3.49846 -3.62193,3.49846c-2.00033,0 -3.62193,-1.56632 -3.62193,-3.49846c0,-1.93214 1.6216,-3.49846 3.62193,-3.49846c2.00033,0 3.62193,1.56632 3.62193,3.49846z" fill-opacity="0.91765" fill="#000000" stroke-linecap="butt"/><path d="M625.4439,441.61442l3.86888,-5.26826" fill="none" stroke-linecap="round"/></g><g stroke-linecap="butt"><path d="M34.35473,450.97149v-30.03003h35.31156v30.03003z" fill-opacity="0.99216" fill="#1d1d1d" stroke="#000000" stroke-width="0"/><g stroke="#ffffff"><path d="M46.51877,434.81543v-4.46882h8.32117v4.46882z" fill="none" stroke-width="1"/><path d="M57.50227,438.09v0.90229h-0.70179v-0.90229z" data-paper-data="{&quot;index&quot;:null}" fill-opacity="0.99216" fill="#1d1d1d" stroke-width="1"/><path d="M57.10682,430.07192c0.02942,0.00215 0.05914,0.00325 0.08911,0.00325v6.68367c-0.02996,0 -0.05968,0.00109 -0.08911,0.00325z" data-paper-data="{&quot;index&quot;:null}" fill-opacity="0.99216" fill="#1d1d1d" stroke-width="0.5"/><path d="M57.10682,440.40933c0.02942,0.00215 0.05914,0.00325 0.08911,0.00325v1.64864h-0.08911z" data-paper-data="{&quot;index&quot;:null}" fill-opacity="0.99216" fill="#1d1d1d" stroke-width="0.5"/><path d="M46.51877,441.803v-4.46882h8.32117v4.46882z" fill="none" stroke-width="1"/></g></g></g></g></svg>