<svg version="1.1" xmlns="http://www.w3.org/2000/svg" xmlns:xlink="http://www.w3.org/1999/xlink" width="35.31156" height="30.03003" viewBox="0,0,35.31156,30.03003"><defs><linearGradient x1="277.50017" y1="431.41227" x2="287.87255" y2="431.41227" gradientUnits="userSpaceOnUse" id="color-1"><stop offset="0" stop-color="#384a92"/><stop offset="1" stop-color="#4fedff"/></linearGradient><linearGradient x1="277.18216" y1="427.80667" x2="277.18216" y2="440.90776" gradientUnits="userSpaceOnUse" id="color-2"><stop offset="0" stop-color="#bb8af6"/><stop offset="1" stop-color="#005096"/></linearGradient><linearGradient x1="275.49689" y1="438.44521" x2="287.91402" y2="438.44521" gradientUnits="userSpaceOnUse" id="color-3"><stop offset="0" stop-color="#e6aaff"/><stop offset="1" stop-color="#654283"/></linearGradient></defs><g transform="translate(-262.87838,-420.94607)"><g data-paper-data="{&quot;isPaintingLayer&quot;:true}" fill-rule="nonzero" stroke-width="0" stroke-linejoin="miter" stroke-miterlimit="10" stroke-dasharray="" stroke-dashoffset="0" style="mix-blend-mode: normal"><path d="M262.87838,450.9761v-30.03003h35.31156v30.03003z" fill="#1d1d1d" stroke="#000000" stroke-linecap="butt"/><g stroke="#ffffff" stroke-linecap="round"><path d="M277.58995,427.8132c0,0 1.5163,-1.15078 2.79009,-1.11489c0.60769,0.01712 6.04824,3.10067 6.04824,3.10067c0,0 1.01058,0.82073 1.19128,1.12667c0.18496,0.33483 0.21914,1.54664 0.21914,1.54664l0.03385,3.65477c0,0 -4.92595,-2.79116 -5.05355,-2.8195c-0.43136,-0.4321 -0.96163,-1.07358 -2.27632,-1.15131c-1.14504,0.00608 -2.15856,0.45075 -3.03219,2.12407c-0.04654,0.07237 0.07947,-6.46712 0.07947,-6.46712z" fill="url(#color-1)"/><path d="M274.28213,439.98763c0,0 -0.80712,-0.62536 -1.06047,-1.06827c-0.24043,-0.42035 -0.23912,-1.53216 -0.23912,-1.53216l0.0187,-4.83678c0,0 0.08764,-1.05763 0.28368,-1.36553c0.1836,-0.28836 0.80688,-0.87209 0.80688,-0.87209l3.57309,-2.50613c0,0 -0.1162,4.53877 -0.1373,6.13877c-0.01335,1.01201 0.13692,1.81845 0.35526,2.20409c0.89985,1.88394 2.87541,1.73595 3.49504,1.57405c0.17789,-0.02897 -5.84043,3.18418 -5.84043,3.18418z" fill="url(#color-2)"/><path d="M287.73198,438.81417c-0.1905,0.37122 -0.70179,0.75107 -0.70179,0.75107c0,0 -5.78213,4.07053 -6.7998,4.07375c-1.28303,0.00407 -4.7335,-2.80922 -4.7335,-2.80922l5.72144,-3.08256c0,0 1.22519,-0.5467 1.54389,-1.05209c0.14374,-0.22794 1.30692,-1.69094 0.05573,-3.44356c-0.01644,-0.02328 5.07233,2.77601 5.07233,2.77601l0.02368,1.81552c0,0 0.00851,0.59986 -0.18199,0.97106z" fill="url(#color-3)"/></g></g></g></svg>