<svg version="1.1" xmlns="http://www.w3.org/2000/svg" xmlns:xlink="http://www.w3.org/1999/xlink" width="78.93147" height="89.55703" viewBox="0,0,78.93147,89.55703"><defs><linearGradient x1="384.41554" y1="205.14499" x2="439.2465" y2="205.14499" gradientUnits="userSpaceOnUse" id="color-1"><stop offset="0" stop-color="#384a92"/><stop offset="1" stop-color="#4fedff"/></linearGradient><linearGradient x1="382.73446" y1="186.08488" x2="382.73446" y2="255.34048" gradientUnits="userSpaceOnUse" id="color-2"><stop offset="0" stop-color="#bb8af6"/><stop offset="1" stop-color="#005096"/></linearGradient><linearGradient x1="373.82571" y1="242.32285" x2="439.46572" y2="242.32285" gradientUnits="userSpaceOnUse" id="color-3"><stop offset="0" stop-color="#e6aaff"/><stop offset="1" stop-color="#654283"/></linearGradient></defs><g transform="translate(-360.53426,-180.22148)"><g data-paper-data="{&quot;isPaintingLayer&quot;:true}" fill-rule="nonzero" stroke="#ffffff" stroke-width="0" stroke-linecap="round" stroke-linejoin="miter" stroke-miterlimit="10" stroke-dasharray="" stroke-dashoffset="0" style="mix-blend-mode: normal"><g><path d="M384.89014,186.11942c0,0 8.01556,-6.08331 14.74913,-5.89359c3.21237,0.0905 31.97249,16.39088 31.97249,16.39088c0,0 5.3422,4.33858 6.29742,5.95588c0.97774,1.76999 1.1584,8.17592 1.1584,8.17592l0.17891,19.32004c0,0 -26.03979,-14.75476 -26.71431,-14.9046c-2.2803,-2.28421 -5.08341,-5.67518 -12.03316,-6.08614c-6.05297,0.03214 -11.41068,2.3828 -16.0289,11.22838c-0.24602,0.38254 0.42007,-34.18679 0.42007,-34.18679z" fill="url(#color-1)"/><path d="M367.40419,250.47647c0,0 -4.26669,-3.30578 -5.60591,-5.64714c-1.271,-2.22205 -1.26402,-8.0994 -1.26402,-8.0994l0.09888,-25.56841c0,0 0.46331,-5.59086 1.49963,-7.2185c0.97056,-1.52434 4.26537,-4.61011 4.26537,-4.61011l18.88826,-13.24802c0,0 -0.61426,23.99309 -0.7258,32.45106c-0.07057,5.34974 0.72382,9.61275 1.87799,11.65134c4.75681,9.959 15.2001,9.17666 18.47562,8.32084c0.94037,-0.15312 -30.87396,16.83236 -30.87396,16.83236z" fill="url(#color-2)"/><path d="M438.50339,244.27329c-1.00703,1.96234 -3.70981,3.97032 -3.70981,3.97032c0,0 -30.56579,21.51783 -35.94545,21.53488c-6.78241,0.02149 -25.02242,-14.85023 -25.02242,-14.85023l30.24497,-16.29518c0,0 6.47666,-2.89001 8.16138,-5.56158c0.75987,-1.20497 6.90868,-8.93873 0.2946,-18.20354c-0.08693,-0.12306 26.81359,14.6747 26.81359,14.6747l0.12518,9.59729c0,0 0.04496,3.17098 -0.96207,5.13329z" fill="url(#color-3)"/></g></g></g></svg>