<svg version="1.1" xmlns="http://www.w3.org/2000/svg" xmlns:xlink="http://www.w3.org/1999/xlink" width="20.23565" height="30.03003" viewBox="0,0,20.23565,30.03003"><g transform="translate(-611.52501,-420.95483)"><g data-paper-data="{&quot;isPaintingLayer&quot;:true}" fill-rule="nonzero" stroke-linejoin="miter" stroke-miterlimit="10" stroke-dasharray="" stroke-dashoffset="0" style="mix-blend-mode: normal"><path d="M611.52501,450.98487v-30.03003h20.23565v30.03003z" fill="#1d1d1d" stroke="#000000" stroke-width="0" stroke-linecap="butt"/><g fill="none" stroke="#ffffff" stroke-width="0.8"><path d="M623.82875,440.617c-0.68491,0.33823 -1.4531,0.52781 -2.26458,0.52781c-2.88052,0 -5.21565,-2.3888 -5.21565,-5.33554c0,-2.94674 2.33513,-5.33555 5.21565,-5.33555c2.88052,0 5.21565,2.38881 5.21565,5.33555v0c0,0.41652 -0.04666,0.8219 -0.13491,1.21095" stroke-linecap="butt"/><path d="M622.98711,439.93243c-0.40503,0.78978 -0.93024,1.2665 -1.50413,1.2665c-1.28138,0 -2.32014,-2.37668 -2.32014,-5.30848c0,-2.9318 1.03876,-5.30849 2.32014,-5.30849c1.28138,0 2.32014,2.37669 2.32014,5.30849c0,0.17885 -0.00386,0.35563 -0.01141,0.52993" stroke-linecap="butt"/><path d="M626.48189,434.38845l-9.95839,-0.05412" stroke-linecap="round"/><path d="M616.73998,437.79813l5.86439,0.03313" stroke-linecap="round"/></g><path d="M627.50078,438.53976c0,1.41807 -1.19015,2.56764 -2.65825,2.56764c-1.46811,0 -2.65826,-1.14957 -2.65826,-2.56764c0,-1.41807 1.19015,-2.56763 2.65826,-2.56763c1.46811,0 2.65825,1.14957 2.65825,2.56763z" fill="#1d1d1d" stroke="#ffffff" stroke-width="0.8" stroke-linecap="butt"/><path d="M623.45298,440.322l2.83951,-3.86655" fill="none" stroke="#ffffff" stroke-width="0.8" stroke-linecap="round"/></g></g></svg>