<svg version="1.1" xmlns="http://www.w3.org/2000/svg" xmlns:xlink="http://www.w3.org/1999/xlink" width="143.5207" height="86.14234" viewBox="0,0,143.5207,86.14234"><g transform="translate(1.1524,-300.16703)"><g stroke-miterlimit="10"><path d="M-1.1524,386.30937v-86.14234h143.5207v86.14234z" fill-opacity="0.91765" fill="#191919" stroke="none" stroke-width="0" stroke-linecap="butt"/><path d="M5.00982,355.30937v-21.37103h133.85848v21.37103z" fill="#333333" stroke="none" stroke-width="0" stroke-linecap="butt"/><g fill="none" stroke="#ffffff" stroke-width="1"><path d="M22.55544,340.01144c2.32508,0.70548 4.03842,2.84259 4.0904,5.40346c0.06464,3.18482 -2.46476,5.81903 -5.64958,5.88368c-3.18482,0.06464 -5.81903,-2.46476 -5.88368,-5.64958c-0.05309,-2.61572 1.64362,-4.86003 4.01612,-5.6144" stroke-linecap="butt"/><path d="M20.91195,344.22956l-0.12965,-6.38765" stroke-linecap="round"/></g><g fill="none" stroke="#ffffff" stroke-width="1"><path d="M15.1716,368.0078c0.58525,-2.35822 2.63163,-4.17896 5.18646,-4.36227c3.17731,-0.22798 5.93784,2.16292 6.16583,5.34023c0.22798,3.1773 -2.16293,5.93784 -5.34023,6.16583c-1.72978,0.12412 -3.33604,-0.52798 -4.47736,-1.6606" stroke-linecap="butt"/><path d="M15.26567,367.74151c0.74529,-2.31263 2.91149,-3.98903 5.47288,-3.99705c3.18546,-0.00996 5.77586,2.56428 5.78584,5.74974c0.00996,3.18546 -2.56428,5.77586 -5.74974,5.78584c-2.61625,0.00818 -4.8311,-1.7268 -5.54464,-4.1119" stroke-linecap="butt"/><path d="M16.80315,368.42222h-2.44444v-2.55556" stroke-linecap="round"/></g><text transform="translate(36.5976,348.36516) scale(0.2625,0.2625)" font-size="40" xml:space="preserve" fill="#ffffff" stroke="none" stroke-width="1" stroke-linecap="butt" font-family="Sans Serif" font-weight="normal" text-anchor="start"><tspan x="0" dy="0">关机</tspan></text><text transform="translate(36.5976,373.86516) scale(0.2625,0.2625)" font-size="40" xml:space="preserve" fill="#ffffff" stroke="none" stroke-width="1" stroke-linecap="butt" font-family="Sans Serif" font-weight="normal" text-anchor="start"><tspan x="0" dy="0">重启</tspan></text><text transform="translate(36.5976,322.0378) scale(0.2625,0.2625)" font-size="40" xml:space="preserve" fill="#ffffff" stroke="none" stroke-width="1" stroke-linecap="butt" font-family="Sans Serif" font-weight="normal" text-anchor="start"><tspan x="0" dy="0">锁屏</tspan></text><g fill="none" stroke="#ffffff" stroke-width="1" stroke-linecap="butt"><path d="M15.88664,323.8723v-7.19293h9.80854v7.19293z"/><path d="M18.14261,317.15362c0.17685,-3.21841 1.35356,-5.70548 2.77884,-5.70548c1.42208,0 2.59671,2.47595 2.77763,5.68387"/></g></g></g></svg>