<svg version="1.1" xmlns="http://www.w3.org/2000/svg" xmlns:xlink="http://www.w3.org/1999/xlink" width="72.63772" height="11.89206" viewBox="0,0,72.63772,11.89206"><defs><radialGradient cx="55.20114" cy="341.37903" r="7.13315" gradientUnits="userSpaceOnUse" id="color-1"><stop offset="0" stop-color="#aa7920"/><stop offset="1" stop-color="#e8bb35"/></radialGradient></defs><g transform="translate(-42.11165,-330.50283)"><g data-paper-data="{&quot;isPaintingLayer&quot;:true}" fill-rule="nonzero" stroke-linecap="butt" stroke-linejoin="miter" stroke-miterlimit="10" stroke-dasharray="" stroke-dashoffset="0" style="mix-blend-mode: normal"><text transform="translate(60.26813,339.46701) scale(0.20513,0.20513)" font-size="40" xml:space="preserve" fill-opacity="0.91765" fill="#ffffff" fill-rule="nonzero" stroke="none" stroke-width="1" stroke-linecap="butt" stroke-linejoin="miter" stroke-miterlimit="10" stroke-dasharray="" stroke-dashoffset="0" font-family="Sans Serif" font-weight="normal" text-anchor="start" style="mix-blend-mode: normal"><tspan x="0" dy="0">Windows 系统</tspan></text><g stroke="#000000" stroke-width="0"><path d="M55.70837,341.19296c-1.21928,0 -9.60679,0 -12.58013,0c-0.63569,0 -1.01657,-0.33874 -1.01657,-0.69534c0,-0.9602 0,-6.19498 0,-8.17308c0,-0.47105 0.48884,-0.75741 0.93644,-0.75741c1.13391,0 5.60898,0 5.60898,0l0.88141,1.20192c0,0 6.83947,6.45959 6.83947,7.64845c0,0.3566 -0.38483,0.77547 -0.6696,0.77547z" data-paper-data="{&quot;index&quot;:null}" fill="#a46900"/><path d="M42.11166,341.61941c0,-1.18886 0,-7.64844 0,-7.64844h6.51896l0.80128,-1.20192c0,0 4.87571,0 6.00962,0c0.44761,0 0.93645,0.28637 0.93645,0.75742c0,1.9781 0,7.21287 0,8.17308c0,0.3566 -0.38089,0.69534 -1.01657,0.69534c-2.97334,0 -11.36085,0 -12.58013,0c-0.28477,0 -0.6696,-0.41887 -0.6696,-0.77547z" fill="url(#color-1)"/></g></g></g></svg>