<svg version="1.1" xmlns="http://www.w3.org/2000/svg" xmlns:xlink="http://www.w3.org/1999/xlink" width="159.66118" height="181.15444" viewBox="0,0,159.66118,181.15444"><defs><linearGradient x1="368.47605" y1="184.83768" x2="479.38716" y2="184.83768" gradientUnits="userSpaceOnUse" id="color-1"><stop offset="0" stop-color="#04348c"/><stop offset="1" stop-color="#40c8f5"/></linearGradient><linearGradient x1="365.07558" y1="146.28317" x2="365.07558" y2="286.37225" gradientUnits="userSpaceOnUse" id="color-2"><stop offset="0" stop-color="#c83ff5"/><stop offset="1" stop-color="#04348c"/></linearGradient><linearGradient x1="347.05508" y1="260.04037" x2="479.83058" y2="260.04037" gradientUnits="userSpaceOnUse" id="color-3"><stop offset="0" stop-color="#a83ff2"/><stop offset="1" stop-color="#4d1d6d"/></linearGradient></defs><g transform="translate(-320.16941,-134.42278)"><g data-paper-data="{&quot;isPaintingLayer&quot;:true}" fill-rule="nonzero" stroke="#ffffff" stroke-width="0" stroke-linecap="round" stroke-linejoin="miter" stroke-miterlimit="10" stroke-dasharray="" stroke-dashoffset="0" style="mix-blend-mode: normal"><path d="M369.43605,146.35304c0,0 16.21368,-12.30526 29.83422,-11.92146c6.49793,0.18306 64.67343,33.15524 64.67343,33.15524c0,0 10.80609,8.77608 12.73832,12.04748c1.97776,3.58036 2.34322,16.5381 2.34322,16.5381l0.36192,39.0802c0,0 -52.67286,-29.84567 -54.03728,-30.14875c-4.61257,-4.62047 -10.28267,-11.47972 -24.34051,-12.31095c-12.24384,0.06501 -23.08139,4.81989 -32.423,22.71258c-0.4977,0.77382 0.84974,-69.15243 0.84974,-69.15243z" fill="url(#color-1)"/><path d="M334.0657,276.53341c0,0 -8.63052,-6.68698 -11.33945,-11.42298c-2.57099,-4.49475 -2.55684,-16.38333 -2.55684,-16.38333l0.19995,-51.71934c0,0 0.93717,-11.30913 3.0334,-14.60151c1.9632,-3.08343 8.62795,-9.32519 8.62795,-9.32519l38.20684,-26.79789c0,0 -1.24247,48.53278 -1.46813,65.6414c-0.14274,10.82137 1.46418,19.44453 3.79877,23.56813c9.62198,20.14488 30.74652,18.56242 37.3722,16.83129c1.9022,-0.30973 -62.45137,34.04825 -62.45137,34.04825z" fill="url(#color-2)"/><path d="M477.88404,263.98564c-2.03703,3.96936 -7.50419,8.03113 -7.50419,8.03113c0,0 -61.82788,43.52588 -72.70977,43.5604c-13.71934,0.0435 -50.615,-30.03879 -50.615,-30.03879l61.179,-32.96164c0,0 13.10089,-5.84586 16.50874,-11.24986c1.53704,-2.43736 13.97473,-18.08102 0.59592,-36.82176c-0.17581,-0.24892 54.23808,29.6837 54.23808,29.6837l0.25316,19.41324c0,0 0.09102,6.41422 -1.946,10.38353z" fill="url(#color-3)"/></g></g></svg>