<svg version="1.1" xmlns="http://www.w3.org/2000/svg" xmlns:xlink="http://www.w3.org/1999/xlink" width="113.68692" height="68.30135" viewBox="0,0,113.68692,68.30135"><g transform="translate(-15.82966,-364.87541)"><g data-paper-data="{&quot;isPaintingLayer&quot;:true}" fill-rule="nonzero" stroke-width="1" stroke-linecap="butt" stroke-linejoin="miter" stroke-miterlimit="10" stroke-dasharray="" stroke-dashoffset="0" style="mix-blend-mode: normal"><path d="M129.51658,422.42661c0,5.93664 -4.81478,10.75016 -10.75016,10.75016h-92.18784c-5.93664,0 -10.74892,-4.81478 -10.74892,-10.75016v-46.80227c0,-5.93664 4.81228,-10.74892 10.74892,-10.74892h92.18659c5.93914,0 10.75016,4.81228 10.75016,10.74892v46.80227z" fill="#cccccc" stroke="none"/><path d="M125.25025,375.62434v46.80102c0,3.57548 -2.9071,6.48383 -6.48508,6.48383h-92.18659c-3.57423,0 -6.48383,-2.90836 -6.48383,-6.48383v-46.80227c0,-3.57548 2.9096,-6.48383 6.48383,-6.48383h92.18659c3.57797,0 6.48508,2.9096 6.48508,6.48508z" fill="#ffffff" stroke="none"/><text transform="translate(65.27621,407.46455) scale(0.67445,0.67445)" font-size="40" xml:space="preserve" fill="#000000" fill-rule="nonzero" stroke="none" stroke-width="1" stroke-linecap="butt" stroke-linejoin="miter" stroke-miterlimit="10" stroke-dasharray="" stroke-dashoffset="0" font-family="Sans Serif" font-weight="normal" text-anchor="start" style="mix-blend-mode: normal"><tspan x="0" dy="0">/</tspan></text><text transform="translate(57.32336,401.76851) scale(0.5,0.5)" font-size="40" xml:space="preserve" fill="#000000" fill-rule="nonzero" stroke="none" stroke-width="1" stroke-linecap="butt" stroke-linejoin="miter" stroke-miterlimit="10" stroke-dasharray="" stroke-dashoffset="0" font-family="Sans Serif" font-weight="normal" text-anchor="start" style="mix-blend-mode: normal"><tspan x="0" dy="0">+</tspan></text><text transform="translate(74.29013,408.01717) scale(0.5,0.5)" font-size="40" xml:space="preserve" fill="#000000" fill-rule="nonzero" stroke="#000000" stroke-width="1" stroke-linecap="butt" stroke-linejoin="miter" stroke-miterlimit="10" stroke-dasharray="" stroke-dashoffset="0" font-family="Sans Serif" font-weight="normal" text-anchor="start" style="mix-blend-mode: normal"><tspan x="0" dy="0">-</tspan></text></g></g></svg>