<svg version="1.1" xmlns="http://www.w3.org/2000/svg" xmlns:xlink="http://www.w3.org/1999/xlink" width="113.68692" height="68.30135" viewBox="0,0,113.68692,68.30135"><g transform="translate(-15.82966,-136.18562)"><g data-paper-data="{&quot;isPaintingLayer&quot;:true}" fill-rule="nonzero" stroke="none" stroke-width="1" stroke-linecap="butt" stroke-linejoin="miter" stroke-miterlimit="10" stroke-dasharray="" stroke-dashoffset="0" style="mix-blend-mode: normal"><path d="M129.51658,193.73681c0,5.93664 -4.81478,10.75016 -10.75016,10.75016h-92.18784c-5.93664,0 -10.74892,-4.81478 -10.74892,-10.75016v-46.80227c0,-5.93664 4.81228,-10.74892 10.74892,-10.74892h92.18659c5.93914,0 10.75016,4.81228 10.75016,10.74892v46.80227z" fill="#cccccc"/><path d="M125.25025,146.93454v46.80102c0,3.57548 -2.9071,6.48383 -6.48508,6.48383h-92.18659c-3.57423,0 -6.48383,-2.90836 -6.48383,-6.48383v-46.80227c0,-3.57548 2.9096,-6.48383 6.48383,-6.48383h92.18659c3.57797,0 6.48508,2.9096 6.48508,6.48508z" fill="#ffffff"/><text transform="translate(62.63419,180.3932) scale(0.77576,0.77576)" font-size="40" xml:space="preserve" fill="#000000" fill-rule="nonzero" stroke="none" stroke-width="1" stroke-linecap="butt" stroke-linejoin="miter" stroke-miterlimit="10" stroke-dasharray="" stroke-dashoffset="0" font-family="Sans Serif" font-weight="normal" text-anchor="start" style="mix-blend-mode: normal"><tspan x="0" dy="0">7</tspan></text></g></g></svg>