<svg version="1.1" xmlns="http://www.w3.org/2000/svg" xmlns:xlink="http://www.w3.org/1999/xlink" width="18.48565" height="30.03003" viewBox="0,0,18.48565,30.03003"><g transform="translate(-590.77501,-420.45478)"><g data-paper-data="{&quot;isPaintingLayer&quot;:true}" fill-rule="nonzero" stroke-linejoin="miter" stroke-miterlimit="10" stroke-dasharray="" stroke-dashoffset="0" style="mix-blend-mode: normal"><path d="M590.77501,450.48482v-30.03003h18.48565v30.03003z" fill-opacity="0.03137" fill="#000000" stroke="#000000" stroke-width="0" stroke-linecap="butt"/><path d="M601.62696,432.52212c1.21346,0.39785 2.12215,2.02422 2.12215,3.97005c0,1.8073 -0.7839,3.339 -1.86782,3.86673" fill="none" stroke="#ffffff" stroke-width="1" stroke-linecap="butt"/><path d="M599.63319,433.91212c0.95805,0.24992 1.67237,1.22114 1.67237,2.38115c0,1.14605 -0.69723,2.10783 -1.63788,2.37182" fill="none" stroke="#ffffff" stroke-width="1" stroke-linecap="butt"/><path d="M597.78227,440.5553l-2.38674,-2.21625h-1.87529l-0.05682,-4.31885h2.04577l2.21626,-2.61405z" fill="none" stroke="#ffffff" stroke-width="1" stroke-linecap="round"/><path d="M604.09696,430.52545c1.25514,0.46982 2.20937,2.82252 2.20937,5.65417c0,2.89786 -0.99938,5.29412 -2.2979,5.68402" fill="none" stroke="#ffffff" stroke-width="1" stroke-linecap="butt"/></g></g></svg>