<svg version="1.1" xmlns="http://www.w3.org/2000/svg" xmlns:xlink="http://www.w3.org/1999/xlink" width="22.16216" height="15.13514" viewBox="0,0,22.16216,15.13514"><g transform="translate(-0.79249,-22.21867)"><g data-paper-data="{&quot;isPaintingLayer&quot;:true}" fill-rule="nonzero" stroke-linejoin="miter" stroke-miterlimit="10" stroke-dasharray="" stroke-dashoffset="0" style="mix-blend-mode: normal"><path d="" fill="#000000" stroke="#818181" stroke-width="0" stroke-linecap="butt"/><path d="" fill="#000000" stroke="#818181" stroke-width="0" stroke-linecap="round"/><path d="M0.7925,37.35381v-15.13514h22.16216v15.13514z" fill="#f3f3f3" stroke="#000000" stroke-width="0" stroke-linecap="butt"/><g fill="none" stroke="#000000" stroke-width="1"><path d="M14.36028,29.76533c0,1.40183 -1.15634,2.53823 -2.58276,2.53823c-1.42642,0 -2.58276,-1.13641 -2.58276,-2.53823c0,-1.40183 1.15634,-2.53823 2.58276,-2.53823c1.42642,0 2.58276,1.13641 2.58276,2.53823z" stroke-linecap="butt"/><path d="M11.79648,25.78847v-1.5298" stroke-linecap="round"/><path d="M15.59303,29.74988h1.5298" stroke-linecap="round"/><path d="M14.38613,27.10934l1.25984,-1.43981" stroke-linecap="round"/><path d="M7.76313,25.69331l1.25984,1.43982" data-paper-data="{&quot;index&quot;:null}" stroke-linecap="round"/><path d="M11.79365,33.50101v1.5298" stroke-linecap="round"/><path d="M6.39052,29.74897h1.52981" stroke-linecap="round"/><path d="M15.78304,33.80939l-1.25984,-1.43981" data-paper-data="{&quot;index&quot;:null}" stroke-linecap="round"/><path d="M8.91213,32.34579l-1.25984,1.43981" stroke-linecap="round"/></g></g></g></svg>