<svg version="1.1" xmlns="http://www.w3.org/2000/svg" xmlns:xlink="http://www.w3.org/1999/xlink" width="95.0899" height="101.49602" viewBox="0,0,95.0899,101.49602"><defs><linearGradient x1="400.0835" y1="174.33292" x2="400.0835" y2="182.87994" gradientUnits="userSpaceOnUse" id="color-1"><stop offset="0" stop-color="#20c3f1"/><stop offset="1" stop-color="#0898d6"/></linearGradient><linearGradient x1="352.45505" y1="233.01282" x2="447.54495" y2="233.01282" gradientUnits="userSpaceOnUse" id="color-2"><stop offset="0" stop-color="#1c308d"/><stop offset="1" stop-color="#000f57" stop-opacity="0.80392"/></linearGradient><linearGradient x1="374.67752" y1="183.01268" x2="374.67752" y2="196.09515" gradientUnits="userSpaceOnUse" id="color-3"><stop offset="0" stop-color="#20c3f1"/><stop offset="1" stop-color="#0898d6"/></linearGradient><linearGradient x1="425.50423" y1="183.01268" x2="425.50423" y2="196.09515" gradientUnits="userSpaceOnUse" id="color-4"><stop offset="0" stop-color="#20c3f1"/><stop offset="1" stop-color="#0898d6"/></linearGradient></defs><g transform="translate(-352.45505,-174.25199)"><g data-paper-data="{&quot;isPaintingLayer&quot;:true}" fill-rule="nonzero" stroke="#000000" stroke-width="0" stroke-linecap="butt" stroke-linejoin="miter" stroke-miterlimit="10" stroke-dasharray="" stroke-dashoffset="0" style="mix-blend-mode: normal"><path d="M377.61047,182.87993v-8.54701h44.94606v8.54702z" fill="url(#color-1)"/><path d="M371.68605,190.27763v-12.82051l5.98291,-3.20513v16.02564z" fill="#2cd4fc"/><path d="M352.45528,266.13233c-0.00052,-0.45147 0,-75.8547 0,-75.8547h95.08547c0,0 0.00944,75.5002 0,75.8547c-0.16451,6.1794 -4.14561,9.38463 -9.82906,9.61538c-0.26227,0.01065 -75.04421,-0.26535 -75.42735,-0.27521c-5.21777,-0.13428 -9.82329,-4.35405 -9.82906,-9.34017z" fill="url(#color-2)"/><g><path d="M379.39217,230.35729v-19.91038h19.91038v19.91038z" fill="#f25022"/><path d="M401.02946,230.3573v-19.91037h19.91038v19.91038z" fill="#7fba00"/><path d="M379.39217,252.05977v-19.91038h19.91038v19.91038z" fill="#00a4ef"/><path d="M401.11741,252.05977v-19.91038h19.91038v19.91038z" fill="#ffb900"/></g><path d="M422.54076,190.13367v-15.81197l5.98291,2.99145v12.82052z" fill="#2cd4fc"/><path d="M371.68606,196.09515v-13.08247h5.98291v13.08247z" fill="url(#color-3)"/><path d="M422.51277,196.09515v-13.08247h5.98291v13.08247z" fill="url(#color-4)"/></g></g></svg>