<svg version="1.1" xmlns="http://www.w3.org/2000/svg" xmlns:xlink="http://www.w3.org/1999/xlink" width="128.13219" height="128.13219" viewBox="0,0,128.13219,128.13219"><g transform="translate(-335.93391,-175.17321)"><g data-paper-data="{&quot;isPaintingLayer&quot;:true}" fill-rule="nonzero" stroke="#ffffff" stroke-linecap="butt" stroke-linejoin="miter" stroke-miterlimit="10" stroke-dasharray="" stroke-dashoffset="0" style="mix-blend-mode: normal"><path d="M337.68391,239.2393c0,-34.41594 27.89968,-62.31609 62.31609,-62.31609c34.41594,0 62.31609,27.89968 62.31609,62.31609c0,34.41594 -27.89968,62.31609 -62.31609,62.31609c-34.41594,0 -62.31609,-27.89968 -62.31609,-62.31609z" fill-opacity="0.63529" fill="#a8a8a8" stroke-width="3.5"/><g fill="none" stroke-width="5"><path d="M374.09235,267.19654c1.95486,-12.29613 13.67609,-21.35843 27.30253,-20.62422c12.38411,0.66727 22.33423,9.21021 24.51278,20.09692"/><path d="M382.33536,228.94671c0,-9.75583 7.90867,-17.66464 17.66464,-17.66464c9.75583,0 17.66464,7.90867 17.66464,17.66464c0,9.75583 -7.90867,17.66464 -17.66464,17.66464c-9.75583,0 -17.66464,-7.90867 -17.66464,-17.66464z"/></g></g></g></svg>