<svg version="1.1" xmlns="http://www.w3.org/2000/svg" xmlns:xlink="http://www.w3.org/1999/xlink" width="58.89062" height="83.4887" viewBox="0,0,58.89062,83.4887"><g transform="translate(-240.80574,-157.0128)"><g data-paper-data="{&quot;isPaintingLayer&quot;:true}" fill-rule="nonzero" stroke-linejoin="miter" stroke-miterlimit="10" stroke-dasharray="" stroke-dashoffset="0" style="mix-blend-mode: normal"><path d="M264.39844,220.67582c2.44545,0.80176 4.27671,4.07934 4.27671,8.00071c0,3.64219 -1.57977,6.72899 -3.76416,7.7925" fill="none" stroke-opacity="0.99216" stroke="#414141" stroke-width="2" stroke-linecap="butt"/><path d="M260.38048,223.47703c1.93073,0.50366 3.37027,2.46093 3.37027,4.79866c0,2.30961 -1.4051,4.24784 -3.30077,4.77985" fill="none" stroke="#ffffff" stroke-width="2" stroke-linecap="butt"/><path d="M256.65038,236.86483l-4.80993,-4.46634h-3.77921l-0.11452,-8.70364h4.12277l4.46637,-5.26802z" fill="none" stroke="#ffffff" stroke-width="2" stroke-linecap="round"/><path d="M269.37616,216.65198c2.52944,0.94682 4.45248,5.68813 4.45248,11.39468c0,5.83998 -2.01403,10.66907 -4.63089,11.45484" fill="none" stroke-opacity="0.9098" stroke="#444444" stroke-width="2" stroke-linecap="butt"/><text transform="translate(241.0471,178.01068) scale(0.48271,0.48271)" font-size="40" xml:space="preserve" fill-opacity="0.91765" fill="#ffffff" fill-rule="nonzero" stroke="none" stroke-width="1" stroke-linecap="butt" stroke-linejoin="miter" stroke-miterlimit="10" stroke-dasharray="" stroke-dashoffset="0" font-family="Sans Serif" font-weight="normal" text-anchor="start" style="mix-blend-mode: normal"><tspan x="0" dy="0">扬声器</tspan></text></g></g></svg>