<svg version="1.1" xmlns="http://www.w3.org/2000/svg" xmlns:xlink="http://www.w3.org/1999/xlink" width="648.05806" height="296.99116" viewBox="0,0,648.05806,296.99116"><g transform="translate(-15.82966,-136.18559)"><g data-paper-data="{&quot;isPaintingLayer&quot;:true}" fill-rule="nonzero" stroke-linecap="butt" stroke-linejoin="miter" stroke-miterlimit="10" stroke-dasharray="" stroke-dashoffset="0" style="mix-blend-mode: normal"><path d="M129.51658,422.4266c0,5.93664 -4.81478,10.75016 -10.75016,10.75016h-92.18784c-5.93664,0 -10.74892,-4.81478 -10.74892,-10.75016v-46.80227c0,-5.93664 4.81228,-10.74892 10.74892,-10.74892h92.18659c5.93914,0 10.75016,4.81228 10.75016,10.74892v46.80227z" fill="#cccccc" stroke="none" stroke-width="1"/><path d="M125.25025,375.62433v46.80102c0,3.57548 -2.9071,6.48383 -6.48508,6.48383h-92.18659c-3.57423,0 -6.48383,-2.90836 -6.48383,-6.48383v-46.80227c0,-3.57548 2.9096,-6.48383 6.48383,-6.48383h92.18659c3.57797,0 6.48508,2.9096 6.48508,6.48508z" fill="#ffffff" stroke="none" stroke-width="1"/><path d="M260.25975,422.42659c0,5.93664 -4.81478,10.75016 -10.75016,10.75016h-92.18784c-5.93664,0 -10.74892,-4.81478 -10.74892,-10.75016v-46.80227c0,-5.93664 4.81228,-10.74892 10.74892,-10.74892h92.18659c5.93914,0 10.75016,4.81228 10.75016,10.74892v46.80227z" fill="#cccccc" stroke="none" stroke-width="1"/><path d="M255.99342,375.62431v46.80102c0,3.57548 -2.9071,6.48383 -6.48508,6.48383h-92.18659c-3.57423,0 -6.48383,-2.90836 -6.48383,-6.48383v-46.80227c0,-3.57548 2.9096,-6.48383 6.48383,-6.48383h92.18659c3.57797,0 6.48508,2.9096 6.48508,6.48508z" fill="#ffffff" stroke="none" stroke-width="1"/><path d="M129.51658,346.73316c0,5.93664 -4.81478,10.75016 -10.75016,10.75016h-92.18784c-5.93664,0 -10.74892,-4.81478 -10.74892,-10.75016v-46.80227c0,-5.93664 4.81228,-10.74892 10.74892,-10.74892h92.18659c5.93914,0 10.75016,4.81228 10.75016,10.74892v46.80227z" fill="#cccccc" stroke="none" stroke-width="1"/><path d="M125.25025,299.93089v46.80102c0,3.57548 -2.9071,6.48383 -6.48508,6.48383h-92.18659c-3.57423,0 -6.48383,-2.90836 -6.48383,-6.48383v-46.80227c0,-3.57548 2.9096,-6.48383 6.48383,-6.48383h92.18659c3.57797,0 6.48508,2.9096 6.48508,6.48508z" fill="#ffffff" stroke="none" stroke-width="1"/><path d="M260.25975,346.73315c0,5.93664 -4.81478,10.75016 -10.75016,10.75016h-92.18784c-5.93664,0 -10.74892,-4.81478 -10.74892,-10.75016v-46.80227c0,-5.93664 4.81228,-10.74892 10.74892,-10.74892h92.18659c5.93914,0 10.75016,4.81228 10.75016,10.74892v46.80227z" fill="#cccccc" stroke="none" stroke-width="1"/><path d="M255.99342,299.93084v46.80102c0,3.57548 -2.9071,6.48383 -6.48508,6.48383h-92.18659c-3.57423,0 -6.48383,-2.90836 -6.48383,-6.48383v-46.80227c0,-3.57548 2.9096,-6.48383 6.48383,-6.48383h92.18659c3.57797,0 6.48508,2.9096 6.48508,6.48508z" fill="#ffffff" stroke="none" stroke-width="1"/><path d="M129.51658,270.80645c0,5.93664 -4.81478,10.75016 -10.75016,10.75016h-92.18784c-5.93664,0 -10.74892,-4.81478 -10.74892,-10.75016v-46.80227c0,-5.93664 4.81228,-10.74892 10.74892,-10.74892h92.18659c5.93914,0 10.75016,4.81228 10.75016,10.74892v46.80227z" fill="#cccccc" stroke="none" stroke-width="1"/><path d="M125.25025,224.00421v46.80102c0,3.57548 -2.9071,6.48383 -6.48508,6.48383h-92.18659c-3.57423,0 -6.48383,-2.90836 -6.48383,-6.48383v-46.80227c0,-3.57548 2.9096,-6.48383 6.48383,-6.48383h92.18659c3.57797,0 6.48508,2.9096 6.48508,6.48508z" fill="#ffffff" stroke="none" stroke-width="1"/><path d="M260.25975,270.80645c0,5.93664 -4.81478,10.75016 -10.75016,10.75016h-92.18784c-5.93664,0 -10.74892,-4.81478 -10.74892,-10.75016v-46.80227c0,-5.93664 4.81228,-10.74892 10.74892,-10.74892h92.18659c5.93914,0 10.75016,4.81228 10.75016,10.74892v46.80227z" fill="#cccccc" stroke="none" stroke-width="1"/><path d="M255.99342,224.0042v46.80102c0,3.57548 -2.9071,6.48383 -6.48508,6.48383h-92.18659c-3.57423,0 -6.48383,-2.90836 -6.48383,-6.48383v-46.80227c0,-3.57548 2.9096,-6.48383 6.48383,-6.48383h92.18659c3.57797,0 6.48508,2.9096 6.48508,6.48508z" fill="#ffffff" stroke="none" stroke-width="1"/><path d="M392.37918,422.42658c0,5.93664 -4.81478,10.75016 -10.75016,10.75016h-92.18784c-5.93664,0 -10.74892,-4.81478 -10.74892,-10.75016v-46.80227c0,-5.93664 4.81228,-10.74892 10.74892,-10.74892h92.18659c5.93914,0 10.75016,4.81228 10.75016,10.74892v46.80227z" fill="#cccccc" stroke="none" stroke-width="1"/><path d="M388.11284,375.62431v46.80102c0,3.57548 -2.9071,6.48383 -6.48508,6.48383h-92.18659c-3.57423,0 -6.48383,-2.90836 -6.48383,-6.48383v-46.80227c0,-3.57548 2.9096,-6.48383 6.48383,-6.48383h92.18659c3.57797,0 6.48508,2.9096 6.48508,6.48508z" fill="#ffffff" stroke="none" stroke-width="1"/><path d="M392.37918,346.73315c0,5.93664 -4.81478,10.75016 -10.75016,10.75016h-92.18784c-5.93664,0 -10.74892,-4.81478 -10.74892,-10.75016v-46.80227c0,-5.93664 4.81228,-10.74892 10.74892,-10.74892h92.18659c5.93914,0 10.75016,4.81228 10.75016,10.74892v46.80227z" fill="#cccccc" stroke="none" stroke-width="1"/><path d="M388.11284,299.93084v46.80102c0,3.57548 -2.9071,6.48383 -6.48508,6.48383h-92.18659c-3.57423,0 -6.48383,-2.90836 -6.48383,-6.48383v-46.80227c0,-3.57548 2.9096,-6.48383 6.48383,-6.48383h92.18659c3.57797,0 6.48508,2.9096 6.48508,6.48508z" fill="#ffffff" stroke="none" stroke-width="1"/><path d="M392.37918,270.80645c0,5.93664 -4.81478,10.75016 -10.75016,10.75016h-92.18784c-5.93664,0 -10.74892,-4.81478 -10.74892,-10.75016v-46.80227c0,-5.93664 4.81228,-10.74892 10.74892,-10.74892h92.18659c5.93914,0 10.75016,4.81228 10.75016,10.74892v46.80227z" fill="#cccccc" stroke="none" stroke-width="1"/><path d="M388.11284,224.0042v46.80102c0,3.57548 -2.9071,6.48383 -6.48508,6.48383h-92.18659c-3.57423,0 -6.48383,-2.90836 -6.48383,-6.48383v-46.80227c0,-3.57548 2.9096,-6.48383 6.48383,-6.48383h92.18659c3.57797,0 6.48508,2.9096 6.48508,6.48508z" fill="#ffffff" stroke="none" stroke-width="1"/><path d="M129.51658,193.7368c0,5.93664 -4.81478,10.75016 -10.75016,10.75016h-92.18784c-5.93664,0 -10.74892,-4.81478 -10.74892,-10.75016v-46.80227c0,-5.93664 4.81228,-10.74892 10.74892,-10.74892h92.18659c5.93914,0 10.75016,4.81228 10.75016,10.74892v46.80227z" fill="#cccccc" stroke="none" stroke-width="1"/><path d="M125.25025,146.93453v46.80102c0,3.57548 -2.9071,6.48383 -6.48508,6.48383h-92.18659c-3.57423,0 -6.48383,-2.90836 -6.48383,-6.48383v-46.80227c0,-3.57548 2.9096,-6.48383 6.48383,-6.48383h92.18659c3.57797,0 6.48508,2.9096 6.48508,6.48508z" fill="#ffffff" stroke="none" stroke-width="1"/><path d="M260.25975,193.73679c0,5.93664 -4.81478,10.75016 -10.75016,10.75016h-92.18784c-5.93664,0 -10.74892,-4.81478 -10.74892,-10.75016v-46.80227c0,-5.93664 4.81228,-10.74892 10.74892,-10.74892h92.18659c5.93914,0 10.75016,4.81228 10.75016,10.74892v46.80227z" fill="#cccccc" stroke="none" stroke-width="1"/><path d="M255.99342,146.93452v46.80102c0,3.57548 -2.9071,6.48383 -6.48508,6.48383h-92.18659c-3.57423,0 -6.48383,-2.90836 -6.48383,-6.48383v-46.80227c0,-3.57548 2.9096,-6.48383 6.48383,-6.48383h92.18659c3.57797,0 6.48508,2.9096 6.48508,6.48508z" fill="#ffffff" stroke="none" stroke-width="1"/><path d="M392.37918,193.73679c0,5.93664 -4.81478,10.75016 -10.75016,10.75016h-92.18784c-5.93664,0 -10.74892,-4.81478 -10.74892,-10.75016v-46.80227c0,-5.93664 4.81228,-10.74892 10.74892,-10.74892h92.18659c5.93914,0 10.75016,4.81228 10.75016,10.74892v46.80227z" fill="#cccccc" stroke="none" stroke-width="1"/><path d="M388.11284,146.93452v46.80102c0,3.57548 -2.9071,6.48383 -6.48508,6.48383h-92.18659c-3.57423,0 -6.48383,-2.90836 -6.48383,-6.48383v-46.80227c0,-3.57548 2.9096,-6.48383 6.48383,-6.48383h92.18659c3.57797,0 6.48508,2.9096 6.48508,6.48508z" fill="#ffffff" stroke="none" stroke-width="1"/><path d="M527.25108,422.42658c0,5.93664 -4.81478,10.75016 -10.75016,10.75016h-92.18784c-5.93664,0 -10.74892,-4.81478 -10.74892,-10.75016v-46.80227c0,-5.93664 4.81228,-10.74892 10.74892,-10.74892h92.18659c5.93914,0 10.75016,4.81228 10.75016,10.74892v46.80227z" fill="#cccccc" stroke="none" stroke-width="1"/><path d="M522.98475,375.62431v46.80102c0,3.57548 -2.9071,6.48383 -6.48508,6.48383h-92.18659c-3.57423,0 -6.48383,-2.90836 -6.48383,-6.48383v-46.80227c0,-3.57548 2.9096,-6.48383 6.48383,-6.48383h92.18659c3.57797,0 6.48508,2.9096 6.48508,6.48508z" fill="#ffffff" stroke="none" stroke-width="1"/><path d="M527.25108,346.73315c0,5.93664 -4.81478,10.75016 -10.75016,10.75016h-92.18784c-5.93664,0 -10.74892,-4.81478 -10.74892,-10.75016v-46.80227c0,-5.93664 4.81228,-10.74892 10.74892,-10.74892h92.18659c5.93914,0 10.75016,4.81228 10.75016,10.74892v46.80227z" fill="#cccccc" stroke="none" stroke-width="1"/><path d="M522.98475,299.93084v46.80102c0,3.57548 -2.9071,6.48383 -6.48508,6.48383h-92.18659c-3.57423,0 -6.48383,-2.90836 -6.48383,-6.48383v-46.80227c0,-3.57548 2.9096,-6.48383 6.48383,-6.48383h92.18659c3.57797,0 6.48508,2.9096 6.48508,6.48508z" fill="#ffffff" stroke="none" stroke-width="1"/><path d="M527.25108,270.80645c0,5.93664 -4.81478,10.75016 -10.75016,10.75016h-92.18784c-5.93664,0 -10.74892,-4.81478 -10.74892,-10.75016v-46.80227c0,-5.93664 4.81228,-10.74892 10.74892,-10.74892h92.18659c5.93914,0 10.75016,4.81228 10.75016,10.74892v46.80227z" fill="#cccccc" stroke="none" stroke-width="1"/><path d="M522.98475,224.0042v46.80102c0,3.57548 -2.9071,6.48383 -6.48508,6.48383h-92.18659c-3.57423,0 -6.48383,-2.90836 -6.48383,-6.48383v-46.80227c0,-3.57548 2.9096,-6.48383 6.48383,-6.48383h92.18659c3.57797,0 6.48508,2.9096 6.48508,6.48508z" fill="#ffffff" stroke="none" stroke-width="1"/><path d="M527.25108,193.73679c0,5.93664 -4.81478,10.75016 -10.75016,10.75016h-92.18784c-5.93664,0 -10.74892,-4.81478 -10.74892,-10.75016v-46.80227c0,-5.93664 4.81228,-10.74892 10.74892,-10.74892h92.18659c5.93914,0 10.75016,4.81228 10.75016,10.74892v46.80227z" fill="#cccccc" stroke="none" stroke-width="1"/><path d="M522.98475,146.93452v46.80102c0,3.57548 -2.9071,6.48383 -6.48508,6.48383h-92.18659c-3.57423,0 -6.48383,-2.90836 -6.48383,-6.48383v-46.80227c0,-3.57548 2.9096,-6.48383 6.48383,-6.48383h92.18659c3.57797,0 6.48508,2.9096 6.48508,6.48508z" fill="#ffffff" stroke="none" stroke-width="1"/><text transform="translate(194.67325,333.48514) scale(0.77576,0.77576)" font-size="40" xml:space="preserve" fill="#000000" fill-rule="nonzero" stroke="none" stroke-width="1" stroke-linecap="butt" stroke-linejoin="miter" stroke-miterlimit="10" stroke-dasharray="" stroke-dashoffset="0" font-family="Sans Serif" font-weight="normal" text-anchor="start" style="mix-blend-mode: normal"><tspan x="0" dy="0">2</tspan></text><text transform="translate(324.79128,332.39261) scale(0.77576,0.77576)" font-size="40" xml:space="preserve" fill="#000000" fill-rule="nonzero" stroke="none" stroke-width="1" stroke-linecap="butt" stroke-linejoin="miter" stroke-miterlimit="10" stroke-dasharray="" stroke-dashoffset="0" font-family="Sans Serif" font-weight="normal" text-anchor="start" style="mix-blend-mode: normal"><tspan x="0" dy="0">3</tspan></text><text transform="translate(457.00248,324.29006) rotate(45.81683) scale(0.77576,0.77576)" font-size="40" xml:space="preserve" fill="#000000" fill-rule="nonzero" stroke="none" stroke-width="1" stroke-linecap="butt" stroke-linejoin="miter" stroke-miterlimit="10" stroke-dasharray="" stroke-dashoffset="0" font-family="Sans Serif" font-weight="normal" text-anchor="start" style="mix-blend-mode: normal"><tspan x="0" dy="0">+</tspan></text><text transform="translate(326.0211,258.45543) scale(0.77576,0.77576)" font-size="40" xml:space="preserve" fill="#000000" fill-rule="nonzero" stroke="none" stroke-width="1" stroke-linecap="butt" stroke-linejoin="miter" stroke-miterlimit="10" stroke-dasharray="" stroke-dashoffset="0" font-family="Sans Serif" font-weight="normal" text-anchor="start" style="mix-blend-mode: normal"><tspan x="0" dy="0">6</tspan></text><text transform="translate(464.3128,258.12453) scale(0.77576,0.77576)" font-size="40" xml:space="preserve" fill="#000000" fill-rule="nonzero" stroke="none" stroke-width="1" stroke-linecap="butt" stroke-linejoin="miter" stroke-miterlimit="10" stroke-dasharray="" stroke-dashoffset="0" font-family="Sans Serif" font-weight="normal" text-anchor="start" style="mix-blend-mode: normal"><tspan x="0" dy="0">-</tspan></text><text transform="translate(193.67084,258.18719) scale(0.77576,0.77576)" font-size="40" xml:space="preserve" fill="#000000" fill-rule="nonzero" stroke="none" stroke-width="1" stroke-linecap="butt" stroke-linejoin="miter" stroke-miterlimit="10" stroke-dasharray="" stroke-dashoffset="0" font-family="Sans Serif" font-weight="normal" text-anchor="start" style="mix-blend-mode: normal"><tspan x="0" dy="0">5</tspan></text><text transform="translate(62.63419,257.46285) scale(0.77576,0.77576)" font-size="40" xml:space="preserve" fill="#000000" fill-rule="nonzero" stroke="none" stroke-width="1" stroke-linecap="butt" stroke-linejoin="miter" stroke-miterlimit="10" stroke-dasharray="" stroke-dashoffset="0" font-family="Sans Serif" font-weight="normal" text-anchor="start" style="mix-blend-mode: normal"><tspan x="0" dy="0">4</tspan></text><text transform="translate(62.63419,334.11735) scale(0.77576,0.77576)" font-size="40" xml:space="preserve" fill="#000000" fill-rule="nonzero" stroke="none" stroke-width="1" stroke-linecap="butt" stroke-linejoin="miter" stroke-miterlimit="10" stroke-dasharray="" stroke-dashoffset="0" font-family="Sans Serif" font-weight="normal" text-anchor="start" style="mix-blend-mode: normal"><tspan x="0" dy="0">1</tspan></text><text transform="translate(326.0211,181.38577) scale(0.77576,0.77576)" font-size="40" xml:space="preserve" fill="#000000" fill-rule="nonzero" stroke="none" stroke-width="1" stroke-linecap="butt" stroke-linejoin="miter" stroke-miterlimit="10" stroke-dasharray="" stroke-dashoffset="0" font-family="Sans Serif" font-weight="normal" text-anchor="start" style="mix-blend-mode: normal"><tspan x="0" dy="0">9</tspan></text><text transform="translate(461.30979,181.0549) scale(0.77576,0.77576)" font-size="40" xml:space="preserve" fill="#000000" fill-rule="nonzero" stroke="none" stroke-width="1" stroke-linecap="butt" stroke-linejoin="miter" stroke-miterlimit="10" stroke-dasharray="" stroke-dashoffset="0" font-family="Sans Serif" font-weight="normal" text-anchor="start" style="mix-blend-mode: normal"><tspan x="0" dy="0">+</tspan></text><text transform="translate(193.67084,181.11754) scale(0.77576,0.77576)" font-size="40" xml:space="preserve" fill="#000000" fill-rule="nonzero" stroke="none" stroke-width="1" stroke-linecap="butt" stroke-linejoin="miter" stroke-miterlimit="10" stroke-dasharray="" stroke-dashoffset="0" font-family="Sans Serif" font-weight="normal" text-anchor="start" style="mix-blend-mode: normal"><tspan x="0" dy="0">8</tspan></text><text transform="translate(62.63419,180.39319) scale(0.77576,0.77576)" font-size="40" xml:space="preserve" fill="#000000" fill-rule="nonzero" stroke="none" stroke-width="1" stroke-linecap="butt" stroke-linejoin="miter" stroke-miterlimit="10" stroke-dasharray="" stroke-dashoffset="0" font-family="Sans Serif" font-weight="normal" text-anchor="start" style="mix-blend-mode: normal"><tspan x="0" dy="0">7</tspan></text><text transform="translate(194.67325,408.56021) scale(0.77576,0.77576)" font-size="40" xml:space="preserve" fill="#000000" fill-rule="nonzero" stroke="none" stroke-width="1" stroke-linecap="butt" stroke-linejoin="miter" stroke-miterlimit="10" stroke-dasharray="" stroke-dashoffset="0" font-family="Sans Serif" font-weight="normal" text-anchor="start" style="mix-blend-mode: normal"><tspan x="0" dy="0">0</tspan></text><text transform="translate(461.30979,409.28312) scale(0.77576,0.77576)" font-size="40" xml:space="preserve" fill="#000000" fill-rule="nonzero" stroke="none" stroke-width="1" stroke-linecap="butt" stroke-linejoin="miter" stroke-miterlimit="10" stroke-dasharray="" stroke-dashoffset="0" font-family="Sans Serif" font-weight="normal" text-anchor="start" style="mix-blend-mode: normal"><tspan x="0" dy="0">รท</tspan></text><text transform="translate(332.43243,402.92794) scale(0.5,0.5)" font-size="40" xml:space="preserve" fill="#000000" fill-rule="nonzero" stroke="none" stroke-width="1" stroke-linecap="butt" stroke-linejoin="miter" stroke-miterlimit="10" stroke-dasharray="" stroke-dashoffset="0" font-family="Sans Serif" font-weight="normal" text-anchor="start" style="mix-blend-mode: normal"><tspan x="0" dy="0">.</tspan></text><text transform="translate(65.27621,407.46454) scale(0.67445,0.67445)" font-size="40" xml:space="preserve" fill="#000000" fill-rule="nonzero" stroke="none" stroke-width="1" stroke-linecap="butt" stroke-linejoin="miter" stroke-miterlimit="10" stroke-dasharray="" stroke-dashoffset="0" font-family="Sans Serif" font-weight="normal" text-anchor="start" style="mix-blend-mode: normal"><tspan x="0" dy="0">/</tspan></text><text transform="translate(57.32336,401.7685) scale(0.5,0.5)" font-size="40" xml:space="preserve" fill="#000000" fill-rule="nonzero" stroke="none" stroke-width="1" stroke-linecap="butt" stroke-linejoin="miter" stroke-miterlimit="10" stroke-dasharray="" stroke-dashoffset="0" font-family="Sans Serif" font-weight="normal" text-anchor="start" style="mix-blend-mode: normal"><tspan x="0" dy="0">+</tspan></text><text transform="translate(74.29013,408.01716) scale(0.5,0.5)" font-size="40" xml:space="preserve" fill="#000000" fill-rule="nonzero" stroke="#000000" stroke-width="1" stroke-linecap="butt" stroke-linejoin="miter" stroke-miterlimit="10" stroke-dasharray="" stroke-dashoffset="0" font-family="Sans Serif" font-weight="normal" text-anchor="start" style="mix-blend-mode: normal"><tspan x="0" dy="0">-</tspan></text><path d="M663.88771,422.42658c0,5.93664 -4.81478,10.75016 -10.75016,10.75016h-92.18784c-5.93664,0 -10.74892,-4.81478 -10.74892,-10.75016v-46.80227c0,-5.93664 4.81228,-10.74892 10.74892,-10.74892h92.18659c5.93914,0 10.75016,4.81228 10.75016,10.74892v46.80227z" fill="#cccccc" stroke="none" stroke-width="1"/><path d="M659.62139,375.62431v46.80102c0,3.57548 -2.9071,6.48383 -6.48508,6.48383h-92.18659c-3.57423,0 -6.48383,-2.90836 -6.48383,-6.48383v-46.80227c0,-3.57548 2.9096,-6.48383 6.48383,-6.48383h92.18659c3.57797,0 6.48508,2.9096 6.48508,6.48508z" fill="#ffffff" stroke="none" stroke-width="1"/><path d="M550.2008,378.71525v-78.78437c0,-5.93664 4.81228,-10.74892 10.74892,-10.74892h92.18659c5.93914,0 10.75016,4.81228 10.75016,10.74892v79.17921z" fill="#cccccc" stroke="none" stroke-width="1"/><path d="M659.62139,299.93084v86.2851h-105.1555v-86.28635c0,-3.57548 2.9096,-6.48383 6.48383,-6.48383h92.18659c3.57797,0 6.48508,2.9096 6.48508,6.48508z" fill="#ffffff" stroke="none" stroke-width="1"/><path d="M663.88771,270.80645c0,5.93664 -4.81478,10.75016 -10.75016,10.75016h-92.18784c-5.93664,0 -10.74892,-4.81478 -10.74892,-10.75016v-88.26055h113.68567v88.26055z" fill="#cccccc" stroke="none" stroke-width="1"/><path d="M659.62139,224.0042v46.80102c0,3.57548 -2.9071,6.48383 -6.48508,6.48383h-92.18659c-3.57423,0 -6.48383,-2.90836 -6.48383,-6.48383v-46.80227c0,-3.57548 2.9096,-6.48383 6.48383,-6.48383h92.18659c3.57797,0 6.48508,2.9096 6.48508,6.48508z" fill="#ffffff" stroke="none" stroke-width="1"/><path d="M663.88771,193.73679c0,5.93664 -4.81478,10.75016 -10.75016,10.75016h-92.18784c-5.93664,0 -10.74892,-4.81478 -10.74892,-10.75016v-46.80227c0,-5.93664 4.81228,-10.74892 10.74892,-10.74892h92.18659c5.93914,0 10.75016,4.81228 10.75016,10.74892v46.80227z" fill="#cccccc" stroke="none" stroke-width="1"/><path d="M659.62139,146.93452v80.75733h-105.1555v-80.75858c0,-3.57548 2.9096,-6.48383 6.48383,-6.48383h92.18659c3.57797,0 6.48508,2.9096 6.48508,6.48508z" fill="#ffffff" stroke="none" stroke-width="1"/><text transform="translate(597.94643,220.93381) scale(0.77576,0.77576)" font-size="40" xml:space="preserve" fill="#000000" fill-rule="nonzero" stroke="none" stroke-width="1" stroke-linecap="butt" stroke-linejoin="miter" stroke-miterlimit="10" stroke-dasharray="" stroke-dashoffset="0" font-family="Sans Serif" font-weight="normal" text-anchor="start" style="mix-blend-mode: normal"><tspan x="0" dy="0">C</tspan></text><text transform="translate(597.94643,367.42999) scale(0.77576,0.77576)" font-size="40" xml:space="preserve" fill="#000000" fill-rule="nonzero" stroke="none" stroke-width="1" stroke-linecap="butt" stroke-linejoin="miter" stroke-miterlimit="10" stroke-dasharray="" stroke-dashoffset="0" font-family="Sans Serif" font-weight="normal" text-anchor="start" style="mix-blend-mode: normal"><tspan x="0" dy="0">ร</tspan></text><path d="M587.90541,356.48207l9.03153,-10.10307h28.16614v20.5123h-28.16614z" fill="none" stroke="#000000" stroke-width="2.5"/></g></g></svg>