<svg version="1.1" xmlns="http://www.w3.org/2000/svg" xmlns:xlink="http://www.w3.org/1999/xlink" width="35.31156" height="30.03003" viewBox="0,0,35.31156,30.03003"><defs><linearGradient x1="280.43877" y1="426.94245" x2="280.43877" y2="428.28918" gradientUnits="userSpaceOnUse" id="color-1"><stop offset="0" stop-color="#20c3f1"/><stop offset="1" stop-color="#0898d6"/></linearGradient><linearGradient x1="280.4253" y1="429.45481" x2="280.4253" y2="442.92211" gradientUnits="userSpaceOnUse" id="color-2"><stop offset="0" stop-color="#fdfdfd"/><stop offset="1" stop-color="#dfdfdf"/></linearGradient><linearGradient x1="276.43561" y1="428.31009" x2="276.43561" y2="430.37147" gradientUnits="userSpaceOnUse" id="color-3"><stop offset="0" stop-color="#20c3f1"/><stop offset="1" stop-color="#0898d6"/></linearGradient><linearGradient x1="284.44424" y1="428.31009" x2="284.44424" y2="430.37147" gradientUnits="userSpaceOnUse" id="color-4"><stop offset="0" stop-color="#20c3f1"/><stop offset="1" stop-color="#0898d6"/></linearGradient></defs><g transform="translate(-262.87838,-420.9461)"><g data-paper-data="{&quot;isPaintingLayer&quot;:true}" fill-rule="nonzero" stroke="#000000" stroke-width="0" stroke-linecap="butt" stroke-linejoin="miter" stroke-miterlimit="10" stroke-dasharray="" stroke-dashoffset="0" style="mix-blend-mode: normal"><path d="M262.87838,450.97613v-30.03003h35.31156v30.03003z" fill="#252525"/><path d="M262.87838,450.97613v-2.53003h35.31156v2.53003z" fill="#00a0ff"/><g><path d="M276.89775,428.28918v-1.34673h7.08203v1.34673z" fill="url(#color-1)"/><path d="M275.96425,429.45481v-2.02009l0.94271,-0.50503v2.52512z" fill="#2cd4fc"/><path d="M272.93411,441.40704c-0.00009,-0.07114 0,-11.95222 0,-11.95222h14.98237c0,0 0.00149,11.89637 0,11.95222c-0.02592,0.97368 -0.65321,1.47871 -1.54874,1.51507c-0.04132,0.00167 -11.82452,-0.04181 -11.88488,-0.04336c-0.82215,-0.02116 -1.54783,-0.68606 -1.54874,-1.4717z" fill="url(#color-2)"/><g><path d="M277.17849,435.77006v-3.13723h3.13723v3.13723z" fill="#f25022"/><path d="M280.58781,435.77006v-3.13723h3.13723v3.13723z" fill="#7fba00"/><path d="M277.17849,439.18966v-3.13723h3.13723v3.13723z" fill="#00a4ef"/><path d="M280.60168,439.18966v-3.13723h3.13723v3.13723z" fill="#ffb900"/></g><path d="M283.9773,429.43213v-2.49145l0.94271,0.47136v2.02009z" fill="#2cd4fc"/><path d="M275.96425,430.37147v-2.06137h0.94271v2.06137z" fill="url(#color-3)"/><path d="M283.97289,430.37147v-2.06137h0.94271v2.06137z" fill="url(#color-4)"/></g></g></g></svg>