<svg version="1.1" xmlns="http://www.w3.org/2000/svg" xmlns:xlink="http://www.w3.org/1999/xlink" width="475.89347" height="301.29921" viewBox="0,0,475.89347,301.29921"><defs><linearGradient x1="617.24386" y1="79.23813" x2="617.24386" y2="87.96278" gradientUnits="userSpaceOnUse" id="color-1"><stop offset="0" stop-color="#ffb4b4"/><stop offset="1" stop-color="#8b2323"/></linearGradient><linearGradient x1="207.69833" y1="86.46386" x2="207.69833" y2="94.06509" gradientUnits="userSpaceOnUse" id="color-2"><stop offset="0" stop-color="#303030"/><stop offset="1" stop-color="#616161"/></linearGradient><linearGradient x1="207.69832" y1="86.46386" x2="207.69832" y2="94.06509" gradientUnits="userSpaceOnUse" id="color-3"><stop offset="0" stop-color="#49b0fc"/><stop offset="1" stop-color="#3345f6"/></linearGradient><radialGradient cx="207.32039" cy="89.46957" r="3.85883" gradientUnits="userSpaceOnUse" id="color-4"><stop offset="0" stop-color="#59ed2b"/><stop offset="1" stop-color="#2d8211"/></radialGradient><linearGradient x1="183.16667" y1="80.88889" x2="183.16667" y2="98.22223" gradientUnits="userSpaceOnUse" id="color-5"><stop offset="0" stop-color="#c2c2c2"/><stop offset="1" stop-color="#a1a1a1"/></linearGradient><linearGradient x1="183.16667" y1="80.88889" x2="183.16667" y2="98.22223" gradientUnits="userSpaceOnUse" id="color-6"><stop offset="0" stop-color="#9e9e9e"/><stop offset="1" stop-color="#272727"/></linearGradient><radialGradient cx="181.1498" cy="88.05092" r="4.99102" gradientUnits="userSpaceOnUse" id="color-7"><stop offset="0" stop-color="#d8d8d8"/><stop offset="1" stop-color="#a1a1a1"/></radialGradient></defs><g transform="translate(-162.05327,-74.35045)"><g data-paper-data="{&quot;isPaintingLayer&quot;:true}" fill-rule="nonzero" stroke-linejoin="miter" stroke-miterlimit="10" stroke-dasharray="" stroke-dashoffset="0" style="mix-blend-mode: normal"><path d="M162.96661,375.17035l-0.66334,-283.88303c0.25,-18.82346 -2.10159,-16.74829 18.97188,-16.49829h440.9165c14.58391,0.5 15.72719,-1.57517 15.47719,13.74829l-0.35043,286.86222z" fill="#cccccc" stroke="#000000" stroke-width="0.5" stroke-linecap="butt"/><path d="M164.45603,373.11532v-268.52614h470.06006v268.52614c0,0 -436.24184,0 -465.1455,0c-2.97099,0 -4.91456,0 -4.91456,0z" fill="#ffffff" stroke="#5f5f5f" stroke-width="0.5" stroke-linecap="butt"/><path d="M627.41865,80.18477v6.83156c0,0.52191 -0.56258,0.94645 -1.25499,0.94645h-17.83986c-0.69168,0 -1.25474,-0.42453 -1.25474,-0.94645v-6.83175c0,-0.52191 0.56306,-0.94645 1.25474,-0.94645h17.83986c0.6924,0 1.25499,0.42472 1.25499,0.94663z" fill="url(#color-1)" stroke="#4e0000" stroke-width="0.5" stroke-linecap="butt"/><text transform="translate(613.88082,85.69372) scale(0.32231,0.17498)" font-size="40" xml:space="preserve" fill="#ffffff" fill-rule="nonzero" stroke="#000000" stroke-width="1" stroke-linecap="butt" stroke-linejoin="miter" stroke-miterlimit="10" stroke-dasharray="" stroke-dashoffset="0" font-family="Sans Serif" font-weight="normal" text-anchor="start" style="mix-blend-mode: normal"><tspan x="0" dy="0">x</tspan></text><g stroke-linecap="butt"><g><path d="M201.27528,94.06509v-7.60125h12.84609v7.60125z" fill="#00006d" stroke="url(#color-2)" stroke-width="2.5"/><path d="M201.27527,94.06509v-7.60125h12.84611v7.60125z" fill="url(#color-3)" stroke="#000000" stroke-width="0"/><path d="M206.8612,87.50831c0,0 1.35375,-3.3031 2.6015,-3.88532c0.59698,-0.43694 1.34588,-0.4381 1.34614,-0.00115c-0.86783,1.07278 -2.60143,3.92121 -2.60143,3.92121c0,0 1.64534,-1.03082 1.90836,-0.72205c0.26302,0.30892 0.2634,0.8097 0.00069,1.11885c-0.84072,0.98976 -2.10524,2.84041 -2.10524,2.84041c-0.26269,0.30915 -0.68889,0.30951 -0.95185,0.00082c0,0 -1.01673,-1.59471 -2.05521,-2.81355c-0.2632,-0.30892 -0.26351,-0.80978 -0.00068,-1.11886c0.26263,-0.30922 1.85772,0.65964 1.85772,0.65964z" fill="url(#color-4)" stroke="#ffffff" stroke-width="0"/></g><text transform="translate(221.16492,93.4896) scale(0.24264,0.24264)" font-size="40" xml:space="preserve" fill="#000000" fill-rule="nonzero" stroke="#000000" stroke-width="3" stroke-linecap="butt" stroke-linejoin="miter" stroke-miterlimit="10" stroke-dasharray="" stroke-dashoffset="0" font-family="Sans Serif" font-weight="normal" text-anchor="start" style="mix-blend-mode: normal"><tspan x="0" dy="0">Windows安装程序</tspan></text></g><path d="M193.66667,89.55556c0,4.78647 -4.70101,8.66667 -10.5,8.66667c-5.79899,0 -10.5,-3.8802 -10.5,-8.66667c0,-4.78647 4.70101,-8.66667 10.5,-8.66667c5.79899,0 10.5,3.8802 10.5,8.66667z" fill="url(#color-5)" stroke="url(#color-6)" stroke-width="0.5" stroke-linecap="butt"/><path d="M182.91141,92.36798c0.34921,0.34886 0.34921,0.91507 0,1.26421c-0.34905,0.34937 -0.91509,0.34937 -1.26446,0c-1.37844,-1.37846 -3.18202,-3.18211 -3.18202,-3.18211c-0.34912,-0.34905 -0.34912,-0.91516 0,-1.26437c0,0 2.08996,-2.0902 3.20769,-3.20777c0.34912,-0.34921 0.91509,-0.34912 1.26446,0c0.34919,0.34912 0.34919,0.91516 0,1.26437c-1.37846,1.37836 -1.67726,1.68075 -1.67726,1.68075c0,0 4.45068,0.00185 6.0312,0.00185c0.49382,0 0.8941,0.40021 0.8941,0.89403c0,0.49373 -0.40028,0.8941 -0.8941,0.8941c-1.88518,0 -6.03605,-0.00176 -6.03605,-0.00176c0,0 0.53869,0.53861 1.65644,1.65669z" fill="url(#color-7)" stroke="#ffffff" stroke-width="0.5" stroke-linecap="butt"/><text transform="translate(197,137.25) scale(0.375,0.3125)" font-size="40" xml:space="preserve" fill="#4498fa" fill-rule="nonzero" stroke="none" stroke-width="1" stroke-linecap="butt" stroke-linejoin="miter" stroke-miterlimit="10" stroke-dasharray="" stroke-dashoffset="0" font-family="Sans Serif" font-weight="normal" text-anchor="start" style="mix-blend-mode: normal"><tspan x="0" dy="0">正在安装Windows</tspan></text><text transform="translate(202,167.55892) scale(0.35196,0.2933)" font-size="40" xml:space="preserve" fill="#000000" fill-rule="nonzero" stroke="#4498fa" stroke-width="0" stroke-linecap="butt" stroke-linejoin="miter" stroke-miterlimit="10" stroke-dasharray="" stroke-dashoffset="0" font-family="Sans Serif" font-weight="normal" text-anchor="start" style="mix-blend-mode: normal"><tspan x="0" dy="0">状态</tspan></text><text transform="translate(227.00001,217.5303) scale(0.37473,0.26974)" font-size="40" xml:space="preserve" fill="#929292" fill-rule="nonzero" stroke="none" stroke-width="1" stroke-linecap="butt" stroke-linejoin="miter" stroke-miterlimit="10" stroke-dasharray="" stroke-dashoffset="0" font-family="Sans Serif" font-weight="normal" text-anchor="start" style="mix-blend-mode: normal"><tspan x="0" dy="0">正在准备要安装的文件</tspan></text><text transform="translate(227.00001,231.53031) scale(0.37473,0.26974)" font-size="40" xml:space="preserve" fill="#929292" fill-rule="nonzero" stroke="none" stroke-width="1" stroke-linecap="butt" stroke-linejoin="miter" stroke-miterlimit="10" stroke-dasharray="" stroke-dashoffset="0" font-family="Sans Serif" font-weight="normal" text-anchor="start" style="mix-blend-mode: normal"><tspan x="0" dy="0">正在安装功能</tspan></text><text transform="translate(227.00001,244.53031) scale(0.37473,0.26974)" font-size="40" xml:space="preserve" fill="#9b9b9b" fill-rule="nonzero" stroke="#000000" stroke-width="0" stroke-linecap="butt" stroke-linejoin="miter" stroke-miterlimit="10" stroke-dasharray="" stroke-dashoffset="0" font-family="Sans Serif" font-weight="normal" text-anchor="start" style="mix-blend-mode: normal"><tspan x="0" dy="0">正在安装更新</tspan></text><text transform="translate(227.00001,257.53031) scale(0.37473,0.26974)" font-size="40" xml:space="preserve" fill="#929292" fill-rule="nonzero" stroke="none" stroke-width="1" stroke-linecap="butt" stroke-linejoin="miter" stroke-miterlimit="10" stroke-dasharray="" stroke-dashoffset="0" font-family="Sans Serif" font-weight="normal" text-anchor="start" style="mix-blend-mode: normal"><tspan x="0" dy="0">正在完成</tspan></text><path d="M224.89879,196.13077l-7.86235,7.42856l-3.76965,-4.9956" fill="none" stroke="#04ff00" stroke-width="3" stroke-linecap="round"/><text transform="translate(227,203.5303) scale(0.37473,0.26974)" font-size="40" xml:space="preserve" fill="#9b9b9b" fill-rule="nonzero" stroke="#000000" stroke-width="0" stroke-linecap="butt" stroke-linejoin="miter" stroke-miterlimit="10" stroke-dasharray="" stroke-dashoffset="0" font-family="Sans Serif" font-weight="normal" text-anchor="start" style="mix-blend-mode: normal"><tspan x="0" dy="0">正在复制Windows文件</tspan></text><path d="M224.89879,211.13077l-7.86235,7.42856l-3.76965,-4.9956" fill="none" stroke="#04ff00" stroke-width="3" stroke-linecap="round"/><path d="M224.89879,224.76713l-7.86235,7.42856l-3.76965,-4.9956" fill="none" stroke="#04ff00" stroke-width="3" stroke-linecap="round"/><path d="M224.8988,238.40349l-7.86235,7.42856l-3.76965,-4.9956" fill="none" stroke="#04ff00" stroke-width="3" stroke-linecap="round"/><path d="M224.8988,250.67622l-7.86235,7.42856l-3.76965,-4.9956" fill="none" stroke="#04ff00" stroke-width="3" stroke-linecap="round"/></g></g></svg>