<svg version="1.1" xmlns="http://www.w3.org/2000/svg" xmlns:xlink="http://www.w3.org/1999/xlink" width="151.32744" height="105.03004" viewBox="0,0,151.32744,105.03004"><defs><linearGradient x1="216.3345" y1="323.24445" x2="222.49261" y2="323.24445" gradientUnits="userSpaceOnUse" id="color-1"><stop offset="0" stop-color="#04348c"/><stop offset="1" stop-color="#40c8f5"/></linearGradient><linearGradient x1="216.1457" y1="321.10379" x2="216.1457" y2="328.88194" gradientUnits="userSpaceOnUse" id="color-2"><stop offset="0" stop-color="#c83ff5"/><stop offset="1" stop-color="#04348c"/></linearGradient><linearGradient x1="215.14514" y1="327.41992" x2="222.51723" y2="327.41992" gradientUnits="userSpaceOnUse" id="color-3"><stop offset="0" stop-color="#a83ff2"/><stop offset="1" stop-color="#4d1d6d"/></linearGradient></defs><g transform="translate(-204.77127,-316.19885)"><g data-paper-data="{&quot;isPaintingLayer&quot;:true}" fill-rule="nonzero" stroke-linejoin="miter" stroke-miterlimit="10" stroke-dasharray="" stroke-dashoffset="0" style="mix-blend-mode: normal"><path d="M204.77127,421.22888v-105.03003h151.32744v105.03004z" fill-opacity="0.85098" fill="#1c1c1c" stroke="#000000" stroke-width="0" stroke-linecap="butt"/><g stroke-linecap="butt"><path d="M209.10886,415.72801v-80.27964h143.37524v80.27964z" fill="#f5f5f5" stroke="#818181" stroke-width="0"/><text transform="translate(219.21107,365.36977) scale(0.16541,0.1867)" font-size="40" xml:space="preserve" fill="#333333" fill-rule="nonzero" stroke="#333333" stroke-width="0" stroke-linecap="butt" stroke-linejoin="miter" stroke-miterlimit="10" stroke-dasharray="" stroke-dashoffset="0" font-family="Sans Serif" font-weight="normal" text-anchor="start" style="mix-blend-mode: normal"><tspan x="0" dy="0">啊哦，出错了!</tspan></text><text transform="translate(219.74156,372.57541) scale(0.10515,0.11868)" font-size="40" xml:space="preserve" fill="#333333" fill-rule="nonzero" stroke="#000000" stroke-width="0" stroke-linecap="butt" stroke-linejoin="miter" stroke-miterlimit="10" stroke-dasharray="" stroke-dashoffset="0" font-family="Sans Serif" font-weight="normal" text-anchor="start" style="mix-blend-mode: normal"><tspan x="0" dy="0">似乎无法显示内容...</tspan></text><text transform="translate(216.55858,353.37959) scale(0.2262,0.25531)" font-size="40" xml:space="preserve" fill="#333333" fill-rule="nonzero" stroke="none" stroke-width="1" stroke-linecap="butt" stroke-linejoin="miter" stroke-miterlimit="10" stroke-dasharray="" stroke-dashoffset="0" font-family="Pixel" font-weight="normal" text-anchor="start" style="mix-blend-mode: normal"><tspan x="0" dy="0">x _ x</tspan></text></g><text transform="translate(226.71906,328.90747) scale(0.22567,0.22567)" font-size="40" xml:space="preserve" fill="#ffffff" fill-rule="nonzero" stroke="none" stroke-width="1" stroke-linecap="butt" stroke-linejoin="miter" stroke-miterlimit="10" stroke-dasharray="" stroke-dashoffset="0" font-family="Sans Serif" font-weight="normal" text-anchor="start" style="mix-blend-mode: normal"><tspan x="0" dy="0">Microsoft 365(office)</tspan></text><g stroke="#ffffff" stroke-width="0" stroke-linecap="round"><path d="M216.3878,321.10767c0,0 0.90023,-0.68322 1.65648,-0.66191c0.36078,0.01016 3.59086,1.84088 3.59086,1.84088c0,0 0.59999,0.48727 0.70727,0.66891c0.10981,0.19879 0.1301,0.91824 0.1301,0.91824l0.02009,2.16985c0,0 -2.92455,-1.65712 -3.00031,-1.67395c-0.2561,-0.25654 -0.57092,-0.63739 -1.35146,-0.68354c-0.67981,0.00361 -1.28155,0.26761 -1.80022,1.26107c-0.02763,0.04296 0.04718,-3.83954 0.04718,-3.83954z" fill="url(#color-1)"/><path d="M214.42394,328.33566c0,0 -0.47919,-0.37128 -0.6296,-0.63424c-0.14275,-0.24956 -0.14196,-0.90965 -0.14196,-0.90965l0.0111,-2.87161c0,0 0.05203,-0.62792 0.16842,-0.81072c0.109,-0.1712 0.47905,-0.51776 0.47905,-0.51776l2.12135,-1.4879c0,0 -0.06899,2.69468 -0.08151,3.6446c-0.00793,0.60083 0.0813,1.07962 0.21092,1.30857c0.53424,1.1185 1.70714,1.03064 2.07501,0.93452c0.10562,-0.0172 -3.46748,1.89046 -3.46748,1.89046z" fill="url(#color-2)"/><path d="M222.40915,327.63897c-0.1131,0.22039 -0.41665,0.44591 -0.41665,0.44591c0,0 -3.43286,2.41668 -4.03706,2.4186c-0.76174,0.00242 -2.81029,-1.66784 -2.81029,-1.66784l3.39684,-1.83013c0,0 0.7274,-0.32458 0.91661,-0.62462c0.08534,-0.13533 0.77592,-1.00391 0.03309,-2.04445c-0.00976,-0.01382 3.01146,1.64813 3.01146,1.64813l0.01406,1.07788c0,0 0.00505,0.35614 -0.10805,0.57652z" fill="url(#color-3)"/></g></g></g></svg>