<svg version="1.1" xmlns="http://www.w3.org/2000/svg" xmlns:xlink="http://www.w3.org/1999/xlink" width="801.8018" height="84.61167" viewBox="0,0,801.8018,84.61167"><g transform="translate(0.9009,-367.36442)"><g data-paper-data="{&quot;isPaintingLayer&quot;:true}" fill-rule="nonzero" stroke-linejoin="miter" stroke-miterlimit="10" stroke-dasharray="" stroke-dashoffset="0" style="mix-blend-mode: normal"><path d="M-0.9009,450.97609v-30.03003h801.8018v30.03003z" fill-opacity="0.91765" fill="#6d6a6a" stroke="#000000" stroke-width="0" stroke-linecap="butt"/><path d="M-0.9009,450.97609v-30.03003h35.31156v30.03003z" fill-opacity="0.91765" fill="#000000" stroke="#000000" stroke-width="0" stroke-linecap="butt"/><g stroke="none" stroke-width="0" stroke-linecap="butt"><path d="M10.16228,440.71288v-9.57619l13.17654,-1.45254v12.55388z" fill="#ffffff"/><path d="M10.17717,436.16127v-0.52654h13.17031v0.52654z" fill-opacity="0.91765" fill="#000000"/><path d="M15.6172,441.36139v-10.82371l0.49816,-0.06933v10.94852z" fill-opacity="0.91765" fill="#000000"/></g><path d="M784.24512,450.97609v-30.03003h1.61156v30.03003z" fill-opacity="0.83529" fill="#ffffff" stroke="#000000" stroke-width="0" stroke-linecap="butt"/><path d="M748.8661,450.47609v-30.03003h35.31156v30.03003z" fill-opacity="0.91765" fill="#000000" stroke="#000000" stroke-width="0" stroke-linecap="butt"/><path d="M759.96168,439.39899v-9.65102h13.18521v9.65102h-4.19458l-2.4728,2.77524l-2.34138,-2.77524z" fill="none" stroke="#ffffff" stroke-width="0.5" stroke-linecap="butt"/><path d="M541.50467,450.47608v-30.03003h35.31156v30.03003z" fill-opacity="0.91765" fill="#000000" stroke="#000000" stroke-width="0" stroke-linecap="butt"/><g fill="none" stroke="#ffffff" stroke-width="1"><path d="M659.24723,378.13362c0,5.67152 -4.49437,10.26921 -10.03844,10.26921c-5.54408,0 -10.03844,-4.59768 -10.03844,-10.2692c0,-5.67152 4.49437,-10.26921 10.03844,-10.26921c5.54408,0 10.03844,4.59769 10.03844,10.26921z" stroke-linecap="butt"/><path d="M653.51807,378.28986c0,5.64276 -1.99929,10.21713 -4.46553,10.21713c-2.46624,0 -4.46552,-4.57436 -4.46552,-10.21713c0,-5.64276 1.99928,-10.21713 4.46552,-10.21713c2.46624,0 4.46553,4.57437 4.46553,10.21713z" stroke-linecap="butt"/><path d="M639.5071,375.29486l19.16667,0.10417" stroke-linecap="round"/><path d="M658.36127,382.0657l-18.4375,-0.10417" stroke-linecap="round"/></g><g stroke="#ffffff" stroke-width="1"><g fill="none"><path d="M609.84645,396.34045c-1.31821,0.65099 -2.79675,1.01587 -4.35859,1.01587c-5.54408,0 -10.03844,-4.59768 -10.03844,-10.2692c0,-5.67152 4.49437,-10.26921 10.03844,-10.26921c5.54408,0 10.03844,4.59769 10.03844,10.26921v-0.00001c0,0.80167 -0.0898,1.58188 -0.25966,2.33069" stroke-linecap="butt"/><path d="M608.22657,395.02284c-0.77956,1.52009 -1.79042,2.4376 -2.89495,2.4376c-2.46624,0 -4.46552,-4.57436 -4.46552,-10.21712c0,-5.64276 1.99928,-10.21713 4.46552,-10.21713c2.46624,0 4.46552,4.57437 4.46552,10.21713c0,0.34422 -0.00744,0.68446 -0.02197,1.01994" stroke-linecap="butt"/><path d="M614.95284,384.35252l-19.16667,-0.10417" stroke-linecap="round"/><path d="M607.4899,390.97878l-11.28706,-0.06377" stroke-linecap="round"/></g><path d="M616.91388,392.34241c0,2.72931 -2.29064,4.94186 -5.11628,4.94186c-2.82564,0 -5.11628,-2.21255 -5.11628,-4.94186c0,-2.72931 2.29064,-4.94186 5.11628,-4.94186c2.82564,0 5.11628,2.21255 5.11628,4.94186z" fill-opacity="0.91765" fill="#000000" stroke-linecap="butt"/><path d="M614.5883,388.3308l-5.46512,7.44186" fill="none" stroke-linecap="round"/></g><path d="M633.02017,450.47609v-30.03003h18.91621v30.03003z" fill-opacity="0.91765" fill="#000000" stroke="#000000" stroke-width="0" stroke-linecap="butt"/><text transform="translate(635.94382,439.76424) scale(0.32963,0.32963)" font-size="40" xml:space="preserve" fill-opacity="0.91765" fill="#ffffff" fill-rule="nonzero" stroke="none" stroke-width="1" stroke-linecap="butt" stroke-linejoin="miter" stroke-miterlimit="10" stroke-dasharray="" stroke-dashoffset="0" font-family="&quot;Microsoft YaHei&quot;, &quot;微软雅黑&quot;, STXihei, &quot;华文细黑&quot;" font-weight="normal" text-anchor="start" style="mix-blend-mode: normal"><tspan x="0" dy="0">中</tspan></text><path d="M612.50596,450.35981v-30.03003h20.36065v30.03003z" fill-opacity="0.91765" fill="#000000" stroke="#000000" stroke-width="0" stroke-linecap="butt"/><g stroke="#ffffff" stroke-width="0.8"><g fill="none"><path d="M625.22621,441.62673c-0.82061,0.40524 -1.74101,0.63238 -2.71327,0.63238c-3.45124,0 -6.24903,-2.8621 -6.24903,-6.39268c0,-3.53058 2.79779,-6.39269 6.24903,-6.39269c3.45124,0 6.24903,2.86211 6.24903,6.39269v0c0,0.49905 -0.0559,0.98474 -0.16164,1.45088" stroke-linecap="butt"/><path d="M624.21781,440.80652c-0.48528,0.94626 -1.11455,1.51743 -1.80214,1.51743c-1.53526,0 -2.77983,-2.84758 -2.77983,-6.36026c0,-3.51268 1.24457,-6.36027 2.77983,-6.36027c1.53526,0 2.77983,2.84759 2.77983,6.36027c0,0.21429 -0.00463,0.42609 -0.01367,0.63493" stroke-linecap="butt"/><path d="M628.40501,434.16411l-11.93146,-0.06484" stroke-linecap="round"/><path d="M623.75924,438.28905l-7.02631,-0.0397" stroke-linecap="round"/></g><path d="M629.62578,439.13792c0,1.69903 -1.42595,3.07637 -3.18493,3.07637c-1.75899,0 -3.18494,-1.37734 -3.18494,-3.07637c0,-1.69903 1.42595,-3.07636 3.18494,-3.07636c1.75899,0 3.18493,1.37734 3.18493,3.07636z" fill-opacity="0.91765" fill="#000000" stroke-linecap="butt"/><path d="M628.17809,436.64065l-3.4021,4.63263" fill="none" stroke-linecap="round"/></g><path d="M592.02501,450.35981v-30.03003h20.36065v30.03003z" fill-opacity="0.91765" fill="#000000" stroke="#000000" stroke-width="0" stroke-linecap="butt"/><path d="M604.25214,414.84599l-3.71041,-2.98417l-4.20136,-0.05882v-5.62952h4.14253l3.76923,-2.89084z" fill="none" stroke="#ffffff" stroke-width="0.5" stroke-linecap="round"/><path d="M605.6492,406.91056c0,0 0.7252,0.18411 0.66934,2.40606c-0.04978,1.98013 -0.66934,2.02615 -0.66934,2.02615" fill="none" stroke="#ffffff" stroke-width="0.5" stroke-linecap="round"/><path d="M607.23766,405.51758c0,0 1.02809,0.2915 0.93965,3.80959c-0.07881,3.13521 -0.93965,3.20807 -0.93965,3.20807" fill="none" stroke="#ffffff" stroke-width="0.5" stroke-linecap="round"/><path d="M608.93675,403.99796c0,0 1.37114,0.41314 1.2458,5.39922c-0.1117,4.44344 -1.2458,4.54669 -1.2458,4.54669" fill="none" stroke="#ffffff" stroke-width="0.5" stroke-linecap="round"/><g fill="none" stroke="#ffffff" stroke-width="0.5" stroke-linecap="round"><path d="M603.23907,441.83339l-3.51905,-2.98417l-3.98468,-0.05882v-5.62952h3.92889l3.57484,-2.89084z"/><path d="M604.56408,433.89793c0,0 0.6878,0.18411 0.63482,2.40606c-0.04721,1.98013 -0.63482,2.02615 -0.63482,2.02615"/><path d="M606.07062,432.50497c0,0 0.97506,0.29151 0.89119,3.8096c-0.07475,3.13522 -0.89119,3.20807 -0.89119,3.20807"/><path d="M607.68209,430.98535c0,0 1.30042,0.41314 1.18155,5.39922c-0.10594,4.44344 -1.18155,4.54669 -1.18155,4.54669"/></g><path d="M69.72476,451.97609v-30.03003h193.03679v30.03003z" fill-opacity="0.91765" fill="#ffffff" stroke="#000000" stroke-width="0" stroke-linecap="butt"/></g></g></svg>